<?xml version="1.0" standalone="no"?>
<!DOCTYPE svg PUBLIC "-//W3C//DTD SVG 1.1//EN" "http://www.w3.org/Graphics/SVG/1.1/DTD/svg11.dtd" >
<!--
2013-9-30: Created.
-->
<svg>
<metadata>
Created by iconfont
</metadata>
<defs>

<font id="iconfont" horiz-adv-x="1024" >
  <font-face
    font-family="iconfont"
    font-weight="500"
    font-stretch="normal"
    units-per-em="1024"
    ascent="896"
    descent="-128"
  />
    <missing-glyph />
    
    <glyph glyph-name="sousuo" unicode="&#58887;" d="M680.728354 244.673791c121.274064 137.208988 116.320239 346.908988-14.939247 478.166427-136.444579 136.433322-357.662913 136.433322-494.094188 0-136.443555-136.442532-136.443555-357.661889 0-494.105445 131.241067-131.253346 340.927763-136.204102 478.149031-14.942317l265.63187-265.63187 30.889521 30.877241L680.728354 244.673791zM649.273968 273.997654l-28.658713-28.668946c-120.345925-105.622596-303.678394-101.031021-418.524049 13.812587-119.651101 119.651101-119.651101 313.648466 0 433.299567C321.742307 812.090938 515.740696 812.090938 635.39282 692.430628 750.211868 577.619766 754.826979 394.343579 649.273968 273.997654z"  horiz-adv-x="1024" />

    
    <glyph glyph-name="sousuo1" unicode="&#58889;" d="M809.246403 124.073062 777.737782 92.541929 924.965961-54.667831 956.476629-23.157163ZM454.878536 825.714214C239.51556 825.714214 64.93236 651.152503 64.93236 435.768037c0-215.341486 174.583201-389.945153 389.945153-389.945153 215.362976 0 389.9472 174.603667 389.9472 389.945153C844.825736 651.152503 670.241512 825.714214 454.878536 825.714214zM454.878536 90.388892c-190.750415 0-345.381192 154.626683-345.381192 345.379145 0 190.751439 154.629753 345.380168 345.381192 345.380168 190.752462 0 345.382215-154.62873 345.382215-345.380168C800.259728 245.016599 645.630998 90.388892 454.878536 90.388892z"  horiz-adv-x="1024" />

    
    <glyph glyph-name="gongnengjianyi" unicode="&#58890;" d="M509.945713 557.016519c-95.924723 0-173.98252-78.033237-173.98252-173.934424 0-95.913467 78.056774-173.946704 173.98252-173.946704 27.333532 0 53.132104 6.514367 76.17082 17.796318l-0.024559 0.057305c6.245238 3.169179 10.526751 9.629311 10.526751 17.10354 0 10.598382-8.590656 19.237133-19.213597 19.237133-2.492774 0-4.866844-0.490164-7.051603-1.356904l-0.101307 0.225127c-18.196431-9.087982-38.614459-14.351869-60.306504-14.351869-74.587765 0-135.248334 60.662615-135.248334 135.238101 0 74.564229 60.660568 135.201262 135.248334 135.201262 74.588789 0 135.296429-60.637032 135.296429-135.201262 0-13.313214-2.029216-26.164916-5.616928-38.319747l0.344854-0.134053c-0.36532-1.479701-0.580215-3.019777-0.580215-4.611018 0-10.597359 8.589632-19.190061 19.212574-19.190061 7.319709 0 13.675464 4.081968 16.918321 10.090822l0.334621-0.12996c0.330528 1.049912 0.652869 2.104941 0.963954 3.163039 0.152473 0.454348 0.279363 0.919952 0.398066 1.38965 4.343935 15.180747 6.710842 31.182186 6.710842 47.740304C683.928233 478.983281 605.896018 557.016519 509.945713 557.016519zM921.639193 479.113241l-66.230424 0c-3.422959 12.533454-7.649214 25.137517-12.888542 38.309514l-3.870144 9.299807c-5.098111 11.824303-10.952446 23.461341-17.326621 34.673707l46.807049 46.806026c4.814656 4.816702 7.481392 11.212366 7.481392 18.010189 0 6.797823-2.665713 13.19451-7.481392 18.010189l-96.986915 96.964402c-9.655917 9.653871-26.437116 9.653871-36.043914 0l-46.806026-46.806026c-11.375072 6.467295-23.36822 12.438287-36.774555 18.24555l-8.685823 3.540639c-11.992125 4.721535-24.311709 8.851599-36.820604 12.298094L606.012675 794.646638c0 14.043854-11.42419 25.468045-25.492604 25.468045L443.383738 820.114682c-14.068414 0-25.491581-11.447726-25.491581-25.468045l0-66.185398c-12.510942-3.445472-24.856108-7.553023-36.775578-12.298094l-10.763135-4.460592c-11.800767-5.098111-23.462365-10.927887-34.697243-17.324574l-46.828538 46.806026c-9.630335 9.630335-26.390044 9.630335-36.042891 0l-96.964402-96.964402c-4.815679-4.792143-7.482415-11.212366-7.482415-18.010189 0-6.797823 2.6432-13.169951 7.482415-18.010189l46.806026-46.806026c-6.467295-11.376095-12.462846-23.462365-18.410302-37.199227l-3.422959-8.28571c-4.744048-11.94403-8.827039-24.263613-12.249999-36.797068l-66.23247 0c-14.043854 0-25.469068-11.44875-25.469068-25.469068l0-137.137357c0-14.020318 11.425214-25.443485 25.469068-25.443485l66.23247 0c3.446495-12.580526 7.694239-25.209148 12.958126-38.522362l3.799536-9.110495c5.146207-11.848862 10.952446-23.462365 17.325597-34.626635l-46.782489-46.817282c-9.937326-9.91379-9.937326-26.106588 0-36.020378l96.963379-96.963379c9.630335-9.582239 26.390044-9.629311 36.019355 0l46.828538 46.830585c11.234879-6.4192 22.825868-12.226462 34.55705-17.325597l7.9296-3.304256 3.0208-1.226944c11.94403-4.720511 24.26566-8.828063 36.775578-12.226462l0-66.184375c0-14.068414 11.423167-25.492604 25.491581-25.492604L580.56612-49.9289c14.07046 0 25.492604 11.472286 25.492604 25.492604l0 66.184375c12.558014 3.445472 25.137517 7.648191 38.237883 12.840446l9.347902 3.870144c11.849886 5.146207 23.463388 10.95347 34.697243 17.373693l46.830585-46.830585c9.606799-9.582239 26.387997-9.629311 36.017308 0l97.011474 96.963379c9.914814 9.91379 9.914814 26.106588 0 36.020378l-46.829562 46.817282c6.420223 11.259438 12.370749 23.202445 18.081821 36.420491l1.509377 3.588735 2.220574 5.475711c4.744048 12.013615 8.850575 24.335245 12.272511 36.775578l66.233494 0c14.043854 0 25.468045 11.400654 25.468045 25.443485L947.157379 453.644173C947.109284 467.664491 935.685094 479.113241 921.639193 479.113241zM906.604778 331.59035l-83.060741 0-4.626367-19.685341c-3.471055-14.635325-8.04728-29.05678-13.972223-43.99705l-1.415232-3.540639-2.031263-4.792143c-5.948479-13.737886-12.911054-27.096125-20.72502-39.701211l-10.619872-17.206894 58.70196-58.71424-75.698053-75.67247-58.678424 58.678424-17.231453-10.574846c-12.935614-7.977695-26.15366-14.82259-41.590234-21.574365l-7.741311-3.114944c-13.973246-5.522784-28.371164-10.055007-42.792619-13.501502l-19.663852-4.672416 0-82.895989L458.419176-9.375276l0 82.895989-19.660782 4.672416c-14.918781 3.587712-29.315676 8.167007-45.319162 14.494109l-7.129374 2.972705c-13.595646 5.901407-26.907836 12.887518-39.676651 20.723997l-17.207917 10.574846-58.678424-58.678424-75.697029 75.67247 58.678424 58.71424-10.598382 17.206894c-7.907087 12.769838-14.870686 26.223245-21.314445 41.069371l-3.351328 8.28571c-5.499248 13.878079-10.007935 28.230971-13.430894 42.723034l-4.695952 19.638269-82.966597 0L117.370663 438.609759l82.966597 0 4.695952 19.637246c3.517103 14.82259 8.167007 29.433356 14.186094 44.587498l3.233648 7.765871c5.877871 13.595646 12.841469 26.954909 20.700461 39.724747l10.620895 17.206894-58.678424 58.655911 75.697029 75.67247 58.654888-58.654888 17.231453 10.598382c12.746302 7.860015 26.15366 14.800078 40.998763 21.219277l8.451486 3.470031c13.594623 5.405103 27.945469 9.936303 42.627866 13.453407l19.684318 4.626367L458.441689 779.564128l107.066481 0 0-82.991156 19.683295-4.626367c14.730493-3.493567 28.940123-8.001231 44.612057-14.186094l7.743358-3.257184c13.760398-5.947456 27.143197-12.911054 39.747259-20.700461l17.206894-10.598382 58.654888 58.654888 75.720565-75.67247-58.678424-58.655911 10.5728-17.183358c7.883551-12.81691 14.869662-26.293853 21.363564-41.259706l3.372817-8.167007c5.477758-13.902638 10.009981-28.253484 13.455453-42.627866l4.626367-19.684318 83.013669 0L906.602731 331.59035z"  horiz-adv-x="1024" />

    
    <glyph glyph-name="zhengfangxingkuangkuang" unicode="&#59576;" d="M37.748503 780.063872l0-958.083832 952.399202 0 0 958.083832L37.748503 780.063872zM872.558882-60.303393 155.528942-60.303393 155.528942 662.283433l717.02994 0L872.558882-60.303393z"  horiz-adv-x="1024" />

    
    <glyph glyph-name="shezhi" unicode="&#58917;" d="M815.680441 338.493709c-7.169283 26.79118-17.776875 52.17429-31.341822 75.642794l59.549258 89.868797-84.901669 84.901669-89.87289-59.545164c-23.463388 13.56597-48.847521 24.169469-75.641771 31.341822l-21.439288 105.639992L451.964672 666.343619l-21.439288-105.644085c-26.79118-7.169283-52.17429-17.772782-75.642794-31.338752l-89.871867 59.545164-84.896552-84.901669 59.544141-89.87289c-13.564947-23.463388-24.173562-48.847521-31.341822-75.638701L102.674451 317.054421l0-120.06554 105.645109-21.439288c7.16826-26.79118 17.772782-52.179406 31.337729-75.642794l-59.544141-89.871867 84.901669-84.901669 89.871867 59.548234c23.463388-13.56597 48.847521-24.173562 75.638701-31.342846l21.439288-105.638969 120.071679 0 21.439288 105.638969c26.790156 7.169283 52.173267 17.776875 75.636654 31.342846l89.87289-59.548234 84.901669 84.901669-59.545164 89.871867c13.56597 23.463388 24.169469 48.847521 31.342846 75.642794l105.638969 21.439288L921.323503 317.054421 815.680441 338.493709 815.680441 338.493709zM654.145417 257.019093c0-78.506005-63.640436-142.146441-142.145417-142.146441-78.506005 0-142.150534 63.640436-142.150534 142.146441 0 78.504982 63.644529 142.149511 142.150534 142.149511C590.504982 399.169627 654.145417 335.524075 654.145417 257.019093L654.145417 257.019093zM654.145417 257.019093"  horiz-adv-x="1024" />

    
    <glyph glyph-name="fabu" unicode="&#58921;" d="M713.75 147.25l-292.5 90 292.5 337.5-382.5-337.5-225 90 720 382.5L713.75 147.25zM421.25 12.25 421.25 169.75l90-45L421.25 12.25z"  horiz-adv-x="1024" />

    
    <glyph glyph-name="i1" unicode="&#59232;" d="M504.385026-77.041196c-251.595186 0-455.558274 203.844277-455.558274 455.44047S252.788833 833.995809 504.385026 833.995809c251.555918 0 455.477724-204.000342 455.477724-455.596535S755.940945-77.041196 504.385026-77.041196L504.385026-77.041196zM504.385026 879.554758c-276.763968 0-501.078962-224.353255-501.078962-501.155484 0-276.645157 224.314994-501.000426 501.078962-501.000426 276.684425 0 501.03768 224.354262 501.03768 501.000426C1005.422706 655.201503 781.069452 879.554758 504.385026 879.554758L504.385026 879.554758zM554.210092 629.212121c-17.69175 0-32.878402-5.792535-45.48142-17.22154-12.681554-11.429005-18.983567-25.207043-18.983567-41.3321 0-16.126064 6.303019-29.903094 18.983567-41.176034 12.603018-11.429005 27.78967-17.065475 45.48142-17.065475 17.652482 0 32.799865 5.63647 45.325354 17.065475 12.524482 11.27294 18.826495 25.049971 18.826495 41.176034 0 16.126064-6.302012 29.903094-18.826495 41.3321S571.862574 629.212121 554.210092 629.212121L554.210092 629.212121zM571.313828 173.146383c-13.973371 0-23.798429 2.191961-29.472153 6.574875-5.63647 4.540993-8.492966 12.838626-8.492966 25.049971 0 5.010196 0.859869 12.212352 2.66217 21.762534 1.721751 9.549175 3.677097 18.004887 5.869057 25.362101l26.928794 92.685597c2.584641 8.453698 4.424196 17.690743 5.402876 27.868206 0.977673 10.176456 1.486143 17.378612 1.486143 21.449396 0 19.413501-7.083345 35.226427-21.17452 47.437772-14.090168 12.211345-34.129944 18.318024-60.081065 18.318024-14.404312 0-29.747029-2.505098-45.911354-7.515293-16.126064-4.853124-33.072728-10.958796-50.764477-18.00388l-7.202156-28.651552c5.204522 2.034889 11.545802 3.913712 18.825488 6.105672 7.359228 2.191961 14.560377 3.288444 21.487657 3.288444 14.286508 0 23.876965-2.505098 28.926429-7.045084 5.010196-4.697058 7.552548-12.994691 7.552548-24.893906 0-6.575882-0.820601-13.778038-2.464823-21.762534-1.643215-7.984496-3.679111-16.439201-6.105672-25.207043l-27.00733-92.997728c-2.426562-9.707254-4.14932-18.474089-5.244797-26.145448-1.095477-7.828431-1.605961-15.343724-1.605961-22.85801 0-18.944299 7.241424-34.757225 21.762534-47.125642 14.482848-12.368417 34.875029-18.631161 60.982216-18.631161 17.064468 0 32.015512 2.191961 44.893406 6.574875 12.877894 4.226849 30.100441 10.646666 51.705903 18.787226l7.201149 28.651552c-3.718379-1.566693-9.707254-3.600575-17.966626-5.949607C585.20967 174.24186 577.851449 173.146383 571.313828 173.146383L571.313828 173.146383z"  horiz-adv-x="1024" />

    
    <glyph glyph-name="icon-goods-copy" unicode="&#58897;" d="M480.822 831.731l-416.806-191.787v-511.434l416.322-191.788 414.756 191.788v511.434l-414.272 191.787zM447.591 23.674l-319.646 144.205v408.134l319.647-127.858v-424.482zM174.711 624.902l306.112 135.84 300.203-136.147-299.665-120.697-306.65 121.003zM831.168 164.81l-319.646-143.284v426.631l319.646 127.858v-411.204z"  horiz-adv-x="1024" />

    
    <glyph glyph-name="house" unicode="&#58935;" d="M512.119727 20.367119l-235.380892 0L276.738835 555.256432l-0.239454 0 0.239454 0.407276 0 21.034059 12.883425 0 104.609523 170.936137 104.557334-170.936137 13.33061 0 0-149.782352 235.379868 0 0-406.548296L512.119727 20.367119 512.119727 20.367119 512.119727 20.367119zM362.333282 533.903102l-42.798758 0 0-85.590354 42.798758 0L362.333282 533.903102 362.333282 533.903102 362.333282 533.903102zM362.333282 405.518083l-42.798758 0 0-85.590354 42.798758 0L362.333282 405.518083 362.333282 405.518083 362.333282 405.518083zM362.333282 277.133064l-42.798758 0 0-85.586261 42.798758 0L362.333282 277.133064 362.333282 277.133064 362.333282 277.133064zM469.325062 533.903102l-42.799782 0 0-85.590354 42.799782 0L469.325062 533.903102 469.325062 533.903102 469.325062 533.903102zM469.325062 405.518083l-42.799782 0 0-85.590354 42.799782 0L469.325062 405.518083 469.325062 405.518083 469.325062 405.518083zM469.325062 277.133064l-42.799782 0 0-85.586261 42.799782 0L469.325062 277.133064 469.325062 277.133064 469.325062 277.133064zM597.710081 405.518083l-42.795689 0 0-85.590354 42.795689 0L597.710081 405.518083 597.710081 405.518083 597.710081 405.518083zM597.710081 277.133064l-42.795689 0 0-85.586261 42.795689 0L597.710081 277.133064 597.710081 277.133064 597.710081 277.133064zM704.700837 405.518083l-42.794665 0 0-85.590354 42.794665 0L704.700837 405.518083 704.700837 405.518083 704.700837 405.518083zM704.700837 277.133064l-42.794665 0 0-85.586261 42.794665 0L704.700837 277.133064 704.700837 277.133064 704.700837 277.133064zM704.700837 277.133064"  horiz-adv-x="1024" />

    
    <glyph glyph-name="sanjiaoxing" unicode="&#58975;" d="M949.223946 20.436704 85.155449 20.436704l432.015318 727.636199L949.223946 20.436704zM220.050742 97.219461l594.278935 0-297.157887 500.437663L220.050742 97.219461z"  horiz-adv-x="1024" />

    
    <glyph glyph-name="weibiaoti3" unicode="&#58923;" d="M519.428114 441.808081c24.206838 0 43.934105 23.792129 43.934105 53.123838 0 29.460411-19.727268 53.250753-43.934105 53.250753-24.267614 0-43.994882-23.790341-43.994882-53.250753C475.433232 465.598422 495.096148 441.808081 519.428114 441.808081zM287.588028 548.180883c-24.305152 0-44.016332-23.790341-44.016332-53.250753 0-29.331709 19.71118-53.123838 44.016332-53.123838 24.237226 0 43.92338 23.792129 43.92338 53.123838C331.511409 524.39233 311.823467 548.180883 287.588028 548.180883zM852.794987 511.457706c0 187.879167-152.873813 340.763705-340.836994 340.763705-187.900617 0-340.752979-152.88275-340.752979-340.763705 0-135.708087 79.852891-252.768578 194.879165-307.554826-59.827105-94.070967-76.47802-164.380194-49.738241-214.12201 27.102649-50.489007 93.355952-74.00228 208.419764-74.00228l8.081459 0.033963c106.957328 1.013534 170.077077 24.310515 198.540042 73.278327 29.707092 51.059231 16.908321 124.934596-39.53855 226.51501l-3.008426 5.003318C786.942092 280.509602 852.794987 388.298135 852.794987 511.457706zM658.759539 196.357682c48.256372-86.901153 61.528841-150.133517 39.508162-188.023957-20.705051-35.593454-74.944312-53.33298-165.801287-54.214236l-7.702501-0.005363c-96.687923 0-155.46753 18.073795-174.629936 53.770926-19.528851 36.310257-1.528345 98.811518 51.870774 181.254551 34.535231-11.806688 71.42465-18.540343 109.955029-18.540343 51.094982 0 99.455031 11.592183 143.047717 31.873588L658.759539 196.357682zM668.843041 253.269312c-10.936157-6.651428-22.152957-12.732632-33.898868-17.973693-37.631247-16.838607-79.171839-26.376909-122.98618-26.376909-31.180023 0-61.239259 4.760213-89.460907 13.567412-12.50919 3.843206-24.505357 8.744635-36.233392 14.153725-104.10263 47.855964-176.753531 152.889901-176.753531 274.817858 0 166.748682 135.717024 302.453193 302.446043 302.453193 166.821971 0 302.537207-135.704512 302.537207-302.453193C814.4952 402.114015 755.974786 306.411025 668.843041 253.269312z"  horiz-adv-x="1024" />

    
    <glyph glyph-name="house1" unicode="&#58891;" d="M805.953212 261.518779c-24.360763 17.373222-51.969628 29.534479-81.202545 36.483768l0 3.474644 0 17.373222-16.240509 0-43.849375 0-16.240509 0 0-17.373222 0-3.474644c-29.232916-5.211967-56.841782-19.110545-81.202545-36.483768l-3.248102 3.474644-11.368356 12.161256-11.368356-12.161256-30.856966-33.009124-11.368356-12.161256 11.368356-12.161256 3.248102-3.474644c-16.240509-26.059834-27.608865-55.594313-34.105069-86.866115l-3.248102 0-16.240509 0 0-17.373222 0-46.907702 0-17.373222 16.240509 0 3.248102 0c3.248102-17.373222 8.120255-34.746446 14.616458-52.119668-12.992407 5.211967-22.736713 13.898578-35.72912 27.797157-22.736713 22.585189-53.593679 52.119668-108.81141 52.119668-56.841782 0-86.074697-29.534479-108.81141-52.119668-14.616458-13.898578-24.360763-24.322511-38.977221-27.797157l0 469.077016c4.872152 0 9.744306-1.737322 14.616458-1.737322 30.856966 0 48.721527 15.6359 61.713934 27.797157 11.368356 12.161256 21.112662 19.110545 40.601272 19.110545 19.488611 0 27.608865-8.686611 40.601272-19.110545 12.992407-12.161256 30.856966-27.797157 61.713934-27.797157 32.481018 0 48.721527 15.6359 61.713934 27.797157 11.368356 12.161256 21.112662 19.110545 40.601272 19.110545 19.488611 0 27.608865-8.686611 40.601272-19.110545 12.992407-12.161256 30.856966-27.797157 61.713934-27.797157 30.856966 0 48.721527 15.6359 61.713934 27.797157 11.368356 12.161256 21.112662 19.110545 40.601272 19.110545 19.488611 0 27.608865-8.686611 40.601272-19.110545 12.992407-12.161256 30.856966-27.797157 61.713934-27.797157 4.872152 0 9.744306 0 14.616458 1.737322l0-191.10545-1.624051 1.737322-11.368356 12.161256-11.368356-12.161256-14.616458-1.737322zm27.608865-88.603437l-11.368356-12.161256-14.616458-15.6359c4.872152-8.686611 8.120255-19.110545 11.368356-29.534479l14.616458 0 4.872152 0 38.977221 0c-4.872152 27.797157-14.616458 52.119668-29.232916 74.704858l-14.616458-17.373222zm-110.435461 64.280924l0-22.585189c9.744306-3.474644 19.488611-6.949289 27.608865-12.161256l14.616458 15.6359 25.984814 27.797157c-21.112662 15.6359-43.849375 26.059834-69.834189 31.271802l0-39.958413 1.624051 0zm110.435461-206.741352l-16.240509 0c-3.248102-10.423933-6.496204-20.847867-11.368356-29.534479l11.368356-12.161256 8.120255-8.686611c3.248102-1.737322 4.872152-1.737322 8.120255-3.474644 6.496204-1.737322 12.992407-3.474644 21.112662-3.474644 1.624051 0 3.248102 0 4.872152 0 8.120255 17.373222 14.616458 36.483768 17.864559 55.594313l-42.225324 0-1.624051 0 0 1.737322zm-215.998769 171.994906c8.120255 5.211967 17.864559 8.686611 27.608865 12.161256l0 19.110545 0 45.17038c-25.984814-5.211967-48.721527-15.6359-69.834189-31.271802l30.856966-33.009124 11.368356-12.161256zm-66.586086-88.603437c3.248102 10.423933 6.496204 20.847867 11.368356 29.534479l-8.120255 8.686611-34.105069 36.483768c-14.616458-22.585189-24.360763-46.907702-29.232916-74.704858l50.345578 0 9.744306 0zm-6.496204-83.39147l-53.593679 0c3.248102-19.110545 9.744306-38.221091 17.864559-55.594313 1.624051 0 3.248102 0 4.872152 0 12.992407 0 21.112662 1.737322 30.856966 6.949289l14.616458 15.6359 3.248102 3.474644c-4.872152 8.686611-8.120255 19.110545-11.368356 29.534479l-6.496204 0zm116.931665 269.284954l0-8.686611 0-8.686611 0-43.433057 0-19.110545 0-8.686611 0-8.686611 0-59.068957c6.496204 3.474644 14.616458 3.474644 22.736713 3.474644 8.120255 0 14.616458-1.737322 22.736713-3.474644l0 59.068957 0 8.686611 0 8.686611 0 20.847867 0 41.695735 0 8.686611 0 8.686611 0 1.737322-45.473425-1.737322 0 0zm-6.496204-161.570972l-38.977221 41.695735-6.496204 6.949289-6.496204 6.949289-9.744306 10.423933-30.856966 33.009124-6.496204 6.949289-6.496204 6.949289-1.624051 1.737322-30.856966-33.009124 1.624051-1.737322 6.496204-6.949289 6.496204-6.949289 32.481018-34.746446 8.120255-8.686611 6.496204-6.949289 6.496204-6.949289 38.977221-41.695735c4.872152 13.898578 16.240509 26.059834 30.856966 33.009124zm129.924072 8.686611l6.496204 6.949289 6.496204 6.949289 14.616458 15.6359 21.112662 22.585189 4.872152 5.211967 6.496204 6.949289 6.496204 6.949289 0 0-17.864559 19.110545-12.992407 13.898578 0-1.737322-6.496204-6.949289-6.496204-6.949289-25.984814-27.797157-14.616458-15.6359-6.496204-6.949289-6.496204-6.949289-38.977221-41.695735c12.992407-6.949289 24.360763-19.110545 30.856966-33.009124l38.977221 43.433057zm-220.870922-50.382346l-8.120255 0-8.120255 0-8.120255 0-50.345578 0-8.120255 0-8.120255 0-1.624051 0 0-24.322511 0-24.322511 1.624051 0 8.120255 0 8.120255 0 51.969628 0 6.496204 0 8.120255 0 8.120255 0 55.217731 0c-3.248102 6.949289-3.248102 15.6359-3.248102 24.322511 0 8.686611 1.624051 15.6359 3.248102 24.322511l-55.217731 0zm324.81018-48.645024l8.120255 0 1.624051 0 0 24.322511 0 24.322511-1.624051 0-8.120255 0-8.120255 0-38.977221 0-8.120255 0-11.368356 0-8.120255 0-8.120255 0-55.217731 0c1.624051-6.949289 3.248102-15.6359 3.248102-24.322511 0-8.686611-1.624051-15.6359-3.248102-24.322511l55.217731 0 8.120255 0 8.120255 0 11.368356 0 6.496204 0 40.601272 0 8.120255 0zm-204.630413 10.423933c17.864559 0 34.105069-3.474644 47.097476-8.686611 3.248102 6.949289 4.872152 13.898578 4.872152 22.585189 0 31.271802-22.736713 55.594313-51.969628 55.594313-29.232916 0-51.969628-24.322511-51.969628-55.594313 0-8.686611 1.624051-15.6359 4.872152-22.585189 12.992407 5.211967 29.232916 8.686611 47.097476 8.686611zm185.141802-100.764692c-3.248102 0-6.496204-1.737322-9.744306-1.737322-1.624051 0-3.248102 0-4.872152 0-1.624051 0-3.248102 0-4.872152 0 0 0-1.624051 0-1.624051 0-4.872152 0-9.744306 1.737322-12.992407 1.737322 0 0 0 0 0 0-6.496204 1.737322-12.992407 3.474644-17.864559 6.949289-3.248102 1.737322-6.496204 3.474644-9.744306 6.949289-3.248102 3.474644-8.120255 5.211967-11.368356 8.686611-1.624051 1.737322-4.872152 3.474644-6.496204 5.211967-1.624051 1.737322-3.248102 3.474644-6.496204 5.211967 0 0 0 0 0 0-12.992407 12.161256-25.984814 24.322511-43.849375 34.746446-3.248102 1.737322-4.872152 3.474644-8.120255 3.474644-3.248102 1.737322-6.496204 1.737322-8.120255 3.474644-11.368356 3.474644-22.736713 5.211967-38.977221 5.211967-14.616458 0-27.608865-1.737322-37.353171-5.211967-3.248102-1.737322-6.496204-1.737322-8.120255-3.474644-3.248102-1.737322-4.872152-1.737322-8.120255-3.474644-17.864559-8.686611-30.856966-22.585189-43.849375-34.746446 0 0 0 0 0 0-1.624051-1.737322-3.248102-3.474644-6.496204-5.211967-1.624051-1.737322-4.872152-3.474644-6.496204-5.211967-1.624051-1.737322-3.248102-1.737322-4.872152-3.474644-4.872152-5.211967-9.744306-8.686611-16.240509-12.161256-6.496204-3.474644-11.368356-5.211967-19.488611-6.949289-4.872152-1.737322-8.120255-1.737322-14.616458-1.737322 0 0-1.624051 0-1.624051 0-1.624051 0-3.248102 0-6.496204 0-1.624051 0-3.248102 0-4.872152 0-3.248102 0-6.496204 0-9.744306 0-25.984814 3.474644-40.601272 17.373222-56.841782 34.746446-22.736713 22.585189-48.721527 46.907702-97.443054 46.907702-50.345578 0-76.330392-24.322511-99.067105-46.907702-16.240509-15.6359-29.232916-27.797157-50.345578-34.746446-6.496204-1.737322-12.992407-1.737322-21.112662-1.737322-35.72912 0-51.969628 15.6359-71.45824 36.483768-22.736713 22.585189-48.721527 46.907702-97.443054 46.907702l0-41.695735c35.72912 0 51.969628-15.6359 71.45824-36.483768 22.736713-22.585189 48.721527-46.907702 99.067105-46.907702 4.872152 0 9.744306 0 14.616458 0 1.624051 0 4.872152 0 6.496204 0 35.72912 5.211967 56.841782 26.059834 76.330392 45.17038 21.112662 20.847867 37.353171 36.483768 71.45824 36.483768 35.72912 0 51.969628-15.6359 71.45824-36.483768 21.112662-20.847867 45.473425-45.17038 89.322799-46.907702 3.248102 0 4.872152 0 8.120255 0 1.624051 0 1.624051 0 3.248102 0 3.248102 0 8.120255 0 11.368356 0 0 0 0 0 0 0 3.248102 0 6.496204 0 9.744306 1.737322 3.248102 0 6.496204 1.737322 9.744306 1.737322 21.112662 5.211967 35.72912 17.373222 48.721527 29.534479 1.624051 1.737322 3.248102 1.737322 4.872152 3.474644 1.624051 1.737322 4.872152 3.474644 6.496204 6.949289 1.624051 1.737322 3.248102 3.474644 3.248102 3.474644 0 0 1.624051 1.737322 1.624051 1.737322 1.624051 1.737322 4.872152 3.474644 6.496204 5.211967 12.992407 12.161256 24.360763 20.847867 40.601272 26.059834 6.496204 1.737322 12.992407 3.474644 22.736713 3.474644 8.120255 0 16.240509-1.737322 22.736713-3.474644 3.248102 0 6.496204-1.737322 8.120255-3.474644l0 0c14.616458-5.211967 24.360763-15.6359 35.72912-26.059834 1.624051-1.737322 1.624051-1.737322 3.248102-3.474644 0 0 1.624051-1.737322 1.624051-1.737322 1.624051-1.737322 3.248102-3.474644 4.872152-3.474644 1.624051-1.737322 4.872152-3.474644 6.496204-6.949289 3.248102-3.474644 6.496204-5.211967 9.744306-8.686611 11.368356-10.423933 25.984814-19.110545 43.849375-24.322511 3.248102-1.737322 6.496204-1.737322 9.744306-1.737322 1.624051 0 1.624051 0 3.248102 0 1.624051 0 4.872152 0 6.496204 0 0 0 0 0 0 0 3.248102 0 8.120255 0 11.368356 0 1.624051 0 1.624051 0 3.248102 0 3.248102 0 6.496204 0 9.744306 0 43.849375 3.474644 68.210138 26.059834 89.322799 46.907702 12.992407 12.161256 24.360763 22.585189 38.977221 29.534479 9.744306 3.474644 19.488611 6.949289 34.105069 6.949289l0 41.695735c-50.345578 0-76.330392-24.322511-99.067105-46.907702-14.616458-12.161256-29.232916-26.059834-53.593679-31.271802zm-660.988714 505.560783c50.345578 0 50.345578 46.907702 102.315206 46.907702 50.345578 0 50.345578-46.907702 102.315206-46.907702 50.345578 0 50.345578 46.907702 102.315206 46.907702 50.345578 0 50.345578-46.907702 102.315206-46.907702 50.345578 0 50.345578 46.907702 102.315206 46.907702 50.345578 0 50.345578-46.907702 102.315206-46.907702 4.872152 0 9.744306 0 14.616458 1.737322 37.353171 8.686611 42.225324 46.907702 87.698748 46.907702l-209.502565 244.962441-394.644367 0-209.502565-244.962441c45.473425 0 50.345578-38.221091 87.698748-46.907702 0-1.737322 4.872152-1.737322 9.744306-1.737322zm496.959574 310.980689l0 83.39147-383.276012 0 0-83.39147 383.276012 0z"  horiz-adv-x="1024" />

    
    <glyph glyph-name="icon-yxj-empty-my" unicode="&#58961;" d="M68.846-127.45c-5.117 0-10.234 1.535-14.84 5.117-9.723 8.188-11.258 23.028-3.070 32.75 4.094 4.606 97.228 118.208 198.038 146.865 12.793 3.582 15.863 15.352 16.887 18.934 0.512 4.094 1.535 14.84-8.699 22.004-112.579 83.411-180.127 215.948-180.127 355.649 0 125.373 53.731 245.628 147.377 329.551 95.181 84.946 217.483 123.837 344.903 109.509 209.295-23.028 373.047-192.409 389.934-402.727 12.793-156.076-55.778-303.453-182.174-394.54-10.234-7.676-9.211-18.934-8.699-22.004 0.512-3.582 3.582-14.328 15.863-18.422 101.322-30.192 185.244-141.236 188.826-145.842 7.676-10.234 5.629-25.075-4.606-32.75-10.234-7.676-25.075-5.629-32.75 4.606-1.023 1.023-78.806 103.368-164.775 128.955-25.586 7.676-44.008 28.657-48.614 55.266-4.606 26.098 6.141 52.196 27.633 67.548 113.091 81.876 173.986 213.901 162.729 353.090-14.84 184.733-164.775 339.785-348.996 360.254-114.626 12.793-224.135-22.004-309.082-98.251-82.899-74.2-131.002-181.662-131.002-294.242 0-124.861 60.384-244.093 161.193-318.293 20.981-15.352 31.215-41.45 26.61-67.548-4.606-26.61-23.539-48.102-49.637-55.266-86.482-25.075-173.986-130.49-175.010-132.025-4.094-5.117-10.746-8.188-17.91-8.188z"  horiz-adv-x="1024" />

    
    <glyph glyph-name="fabu1" unicode="&#58898;" d="M213.19459 406.502503l593.517595 0 0-40.932248-593.517595 0 0 40.932248ZM489.487264 682.795177l40.932248 0 0-593.517595-40.932248 0 0 593.517595ZM955.10898 450.627467c0 0-3.246951 26.397207-27.294646 23.583115-18.633383-2.180666-14.07353-23.583115-14.07353-23.583115l-0.007163 0.010233c3.357468-21.208021 5.052063-42.768059 5.052063-64.591087 0-55.210439-10.804067-108.747773-32.111349-159.124114-20.588921-48.677653-50.073442-92.40455-87.632873-129.965004-37.560454-37.559431-81.287351-67.043952-129.965004-87.632873-50.376341-21.307282-103.913675-32.111349-159.124114-32.111349-55.210439 0-108.74675 10.804067-159.124114 32.111349-48.678676 20.588921-92.40455 50.073442-129.96398 87.632873-37.559431 37.560454-67.043952 81.287351-87.632873 129.965004-21.307282 50.376341-32.111349 103.913675-32.111349 159.124114 0 55.210439 10.804067 108.74675 32.111349 159.124114 20.589944 48.678676 50.073442 92.40455 87.632873 129.96398s81.286328 67.043952 129.96398 87.632873c50.376341 21.307282 103.913675 32.111349 159.124114 32.111349 55.210439 0 108.747773-10.804067 159.124114-32.111349 10.532891-4.455475 20.818141-9.351995 30.875195-14.632255l-0.035816 0.050142c0 0 26.305109-14.396895 31.080879 10.844999 3.571339 18.875906-31.080879 34.797527-31.080879 34.797527-57.710376 26.931373-122.07736 41.98216-189.963493 41.98216-248.39837 0-449.764564-201.366194-449.764564-449.764564s201.366194-449.764564 449.764564-449.764564 449.764564 201.366194 449.764564 449.764564C959.717951 407.976064 958.141036 429.537126 955.10898 450.627467z"  horiz-adv-x="1024" />

    
    <glyph glyph-name="icon-arrow-right" unicode="&#58971;" d="M365.709 32.721c-7.953-0.001-15.9 3.072-21.911 9.195-11.877 12.1-11.695 31.536 0.405 43.413l309.436 303.706-312.709 312.71c-11.989 11.988-11.989 31.426 0 43.415 11.988 11.989 31.427 11.989 43.415 0l334.621-334.621c5.793-5.792 9.030-13.66 8.992-21.852-0.039-8.192-3.348-16.028-9.195-21.767l-331.551-325.411c-5.975-5.865-13.742-8.789-21.502-8.789z"  horiz-adv-x="1024" />

    
    <glyph glyph-name="fabu2" unicode="&#58939;" d="M610.142714-24.43334c-7.26604 0-14.327404 3.479512-18.727963 9.51749l-0.102339 0.204677L439.03258 228.138317c-0.102339 0.102339-0.204677 0.204677-0.307016 0.204677l-310.392964 22.719168-0.307016 0c-9.51749 1.228063-17.397561 8.289426-19.649011 17.704577-2.251449 9.210474 1.535079 19.034979 9.312812 24.458925l677.788527 429.515091 0.102339 0.102339c6.140316 4.093544 13.815711 5.219268 20.672397 2.763142 11.359584-4.195882 17.397561-15.453128 15.043774-26.608035l-198.536878-705.010594c-1.944433-8.903458-8.903458-15.964821-17.806916-17.909254C613.315211-24.228663 611.677793-24.43334 610.142714-24.43334zM191.78253 290.053168l261.679792-17.909254c0 0 0 0 0.102339 0l0.102339 0c6.447332-0.818709 12.280632-4.298221 16.06716-9.51749l0 0c0 0 0 0 0 0L598.680792 52.11593l177.762143 602.46732"  horiz-adv-x="1024" />

    
    <glyph glyph-name="fabu3" unicode="&#59198;" d="M993.898403 844.4672C986.916585 849.959564 977.444585 850.983564 969.462039 847.166836 969.462039 847.166836 730.311494 732.711564 491.184221 617.255564-0.568506 379.780655-0.568506 379.780655 0.08313 359.626473 0.385676 350.410473 6.180585 342.125382 14.768221 338.704291 16.490403 338.006109 19.702039 336.726109 273.560948 248.359564 285.732585 244.123927 298.974767 250.523927 303.18713 262.672291 307.422767 274.797382 301.022767 288.086109 288.874403 292.298473 246.006039 307.216291 142.349312 343.312291 80.560221 364.909382 204.37113 427.466473 566.029312 602.081745 865.10713 745.534836L357.97113 238.398836C353.595857 234.046836 351.152221 228.135564 351.152221 221.945018L351.152221-57.327709C351.152221-70.197527 361.55513-80.600436 374.424948-80.600436 387.294767-80.600436 397.697676-70.197527 397.697676-57.327709L397.697676 212.310109 926.151494 740.763927C935.227857 749.863564 939.766039 781.328291 946.934039 784.772655L804.411857 112.958836 521.834403 211.216291C509.77913 215.4752 496.443857 209.028655 492.208221 196.880291 487.995857 184.731927 494.395857 171.489745 506.567494 167.254109L814.070039 60.3392C816.560221 59.478109 819.143494 59.035927 821.726767 59.035927 825.659857 59.035927 829.616221 60.059927 833.153676 62.038109 838.971857 65.319564 843.114403 70.951564 844.487494 77.4912L1002.276585 821.357382C1004.11513 830.014836 1000.880221 838.974836 993.898403 844.4672"  horiz-adv-x="1025" />

    
    <glyph glyph-name="wuwupin" unicode="&#58884;" d="M823.681956 411.300878c0 1.320812-0.196586 2.586334-0.478155 3.822164-0.022525 0.088054-0.047099 0.176108-0.067576 0.263139-0.122866 0.50068-0.215016 1.01467-0.379862 1.495896l-27.170845 105.182716c-1.972003 7.562417-8.802342 13.919721-16.618682 13.919721h-533.444255c-7.816341 0-14.64668-6.357304-16.618682-13.919721l-27.494393-105.885101c-0.017406-0.065529-0.024573-0.403411-0.039931-0.469963-0.100341-0.405459-0.174061-0.952213-0.245733-1.365864a22.310461 22.310461 0 0 1-0.111603-0.687027 18.240517 18.240517 0 0 1-0.132082-1.605452c-0.002048-0.098293-0.017406-0.213992-0.020477-0.312285-0.015358-0.599997 0-1.213304 0.049146-1.816372l27.494393-338.131986c0.724911-8.918041 8.171629-14.982514 17.120386-14.982514h533.444255c8.947734 0 16.395476 6.060377 17.120386 14.978419l27.416577 337.579087c0.103412 0.765866 0.177132 1.13856 0.177133 1.935143z m-564.889821 89.871535h506.906171l18.529253-70.648088H240.262883l18.529252 70.648088z m504.336219-409.55413H261.362087l-24.7084 304.093941h551.183067l-24.7084-304.093941zM494.035932 618.555746v75.573999c0 9.486298 7.918729 17.175676 17.40605 17.175677s17.406051-7.690403 17.406051-17.175677v-75.573999c0-9.486298-7.918729-17.175676-17.406051-17.175677s-17.406051 7.690403-17.40605 17.175677z m-208.401619 48.364247c-5.857648 7.461052-4.558337 18.257923 2.902715 24.116595 7.465148 5.857648 18.260995 4.559361 24.117619-2.903739l46.745484-59.543027c5.857648-7.461052 4.557314-18.257923-2.902715-24.116595a17.114243 17.114243 0 0 0-10.596189-3.666533c-5.092806 0-10.133393 2.254595-13.52143 6.571296l-46.745484 59.542003z m384.957333-38.45099l46.743436 59.543028c5.859696 7.457981 16.659638 8.759339 24.115572 2.903738 7.4631-5.857648 8.762411-16.654519 2.904762-24.116595l-46.743437-59.543027a17.145984 17.145984 0 0 0-13.521429-6.570272c-3.712608 0-7.44979 1.197946-10.594142 3.666534-7.4631 5.857648-8.762411 16.654519-2.904762 24.116594z"  horiz-adv-x="1024" />

    
    <glyph glyph-name="zhengfangxing-" unicode="&#59145;" d="M829.44 701.44h61.44v61.44H256v-61.44h573.44zM829.44 639.998976V5.12h61.44V639.998976zM194.56 128V762.88h-61.44v-634.88zM262.276096 66.56H133.12v-61.44h634.88v61.44z"  horiz-adv-x="1024" />

    
    <glyph glyph-name="wupin" unicode="&#59291;" d="M99.697653 131.292488V638.051113L513.136893 828.290899l410.893255-190.222389v-506.786255L512.649799-58.945251 99.697653 131.292488z m434.248172 325.453326v-457.029014l345.92252 155.063635V595.113185L533.945825 456.745814zM143.860479 157.919938L489.781976 1.862673l0.001023 454.883141L143.860479 595.113185v-437.193247z m31.009247 470.947002l338.870918-133.715421 331.206354 133.401266L513.198292 779.003356 174.869726 628.86694z"  horiz-adv-x="1024" />

    
    <glyph glyph-name="fabu4" unicode="&#59109;" d="M209.466157 447.265591l362.563778-214.064194 175.917512-361.201397 184.602694 152.416431 216.788958-128.063862 280.309995 999.647431L209.466157 447.265591z m536.608016-281.161483l-0.170298-178.131382-124.147015 254.935639L1210.816564 688.23682 746.074173 166.104108z m-424.041244 270.943622L1248.282056 777.813404 589.230002 279.352071l-267.197073 157.695659z m797.163479-466.615666L803.294196 157.07833l537.8001 604.556794-221.897888-791.20306z"  horiz-adv-x="1641" />

    
    <glyph glyph-name="fabu5" unicode="&#59040;" d="M393.998 73.728c-7.886-13.511-25.394-18.112-38.905-10.233l-3.527 2.055c-13.51 7.886-18.112 25.394-10.233 38.905l77 131.94c7.886 13.51 25.393 18.112 38.904 10.233l3.527-2.056c13.512-7.886 18.112-25.393 10.233-38.904l-76.999-131.94zM749.71 280.036c139.406 215.04 45.22 433.201 4.637 462.57-22.94 16.59-79.268 10.525-120.562 0.306-72.91-18.07-207.097-72.853-288.996-236.644-3.441 0.441-7.011 0.313-10.567-0.597-71.658-18.204-201.45-104.79-179.783-302.272a28.46 28.46 0 0 1 28.274-25.344 28.419 28.419 0 0 1 19.143 7.403c13.255 12.06 68.693 53.006 97.557 32.889 1.92-1.337 3.968-2.319 6.052-3.13 7.51-20.785 18.19-41.03 32.924-60.166l35.1 41.514c-51.953 97.942-7.551 218.148 23.546 281.081 33.344 67.485 76.85 114.262 121.216 146.589l243.94-142.358c-6.13-54.585-25.38-115.491-67.777-177.77-58.745-86.28-118.066-126.571-165.753-144.768-6.94 0.263-13.781-1.949-19.178-6.386-19.122-5.412-35.762-7.325-48.89-7.623l-21.261-50.077c8.462-7.765 28.103-9.265 28.103-9.265 20.544 0.469 40.057 3.448 58.574 8.32 14.791-23.09 13.66-66.973 9.884-88.655a28.422 28.422 0 0 1 10.311-27.27 28.455 28.455 0 0 1 28.9-3.876c182.592 78.272 194.148 233.87 174.748 305.209-0.05 0.12-0.106 0.213-0.142 0.32z m-540.522-20.203c4.778 106.446 66.673 156.117 106.353 177.166-15.836-45.731-28.174-101.326-23.758-157.027-28.16 3.114-57.493-6.507-82.595-20.14z m511.118 432.96c11.733-15.652 40.661-74.78 43.875-155.506L565.227 653.39c72.17 37.59 137.749 41.671 155.079 39.403zM594.972 48.455a246 246 0 0 1-0.519 8.633c-1.92 24.334-7.445 43.122-14.734 57.742 48.853 24.662 88.754 61.703 119.602 97.586-2.44-46.236-22.002-113.77-104.349-163.96z"  horiz-adv-x="1024" />

    
    <glyph glyph-name="gengxin" unicode="&#58962;" d="M666.624 455.68c7.68 0 10.24-0.512 14.848-5.632 27.648-31.232 26.624-26.112 47.104-47.104 22.016-22.016 16.896-22.528 8.704-34.816-38.912 0-37.376 4.096-37.888-12.288-1.536-41.984-20.992-78.848-45.056-109.568-46.592-59.392-145.408-85.504-218.112-49.152-10.752 5.12-19.456 9.728-29.696 16.384-7.68 5.12-19.968 14.336-24.576 21.504l37.888 39.424c5.12-3.072 10.752-8.704 16.896-13.312 7.168-5.12 12.8-7.68 19.968-11.264 81.92-40.448 185.856 19.456 185.856 119.296-12.288 0-67.584-6.656-44.544 23.552 7.168 6.656 63.488 62.976 68.608 62.976z m-278.016-91.648c25.6 0 75.264 4.608 36.864-32.768-12.288-11.776-53.248-56.832-61.952-56.832-6.656 0-42.496 39.424-47.616 44.544-6.656 6.656-17.92 16.384-23.04 23.04-19.456 25.6 29.184 22.528 39.424 22.528 0 36.352 14.848 76.288 34.304 105.984 57.344 87.04 181.248 107.52 265.728 44.032 6.656-5.12 13.312-11.776 19.456-15.872l-29.184-29.696c-5.632-4.608-6.656-3.584-10.752-10.24-12.8 8.704-23.04 18.944-38.912 25.6-94.72 38.912-182.272-32.256-184.32-120.32z m-100.352 246.272c-22.016 0-46.08 16.896-98.816-5.632-45.056-18.944-84.992-70.144-84.992-115.712 0-37.376-2.048-23.552 6.144-58.368-55.808-29.696-100.352-98.816-100.352-166.912 0-51.712 10.752-88.576 39.424-127.488 8.192-11.264 14.336-16.896 24.064-26.112 32.768-32.768 80.896-56.832 145.92-56.832h551.936c90.112 0 162.816 44.544 206.848 118.784 33.28 55.808 27.136 91.648 27.136 154.624 0 24.576-19.456 65.536-29.184 81.408C944.64 460.288 890.88 501.76 830.464 515.072c-22.016 5.12-4.096 3.072-23.552 61.952-14.848 43.52-29.184 66.56-55.808 98.304-7.168 8.704-8.704 12.288-19.968 21.504-27.136 22.528-52.736 41.472-87.552 54.784-89.088 33.792-187.904 23.04-264.192-31.744-31.744-22.528-82.944-74.24-91.136-109.568z"  horiz-adv-x="1024" />

    
    <glyph glyph-name="wode" unicode="&#58899;" d="M169.655645-21.72605c-10.377565 0-20.420644 5.188782-26.446249 14.561675-9.206257 14.561674-4.854297 33.811011 9.707378 43.016052 5.356633 3.348504 132.898996 83.187153 234.162962 88.2093h0.50112v17.406626C270.416058 190.006923 193.255725 312.360503 193.255725 453.293233c0 184.451118 141.936186 334.588889 316.512077 334.588889 174.574674 0 316.512076-149.971136 316.512076-334.588889 0-140.764879-73.814261-259.937807-189.807751-309.817501v-19.750457c101.934153-9.205041 228.471843-84.35846 233.995111-87.537897 14.729525-8.871772 19.583822-27.952041 10.71205-42.681566-8.870556-14.729525-27.952041-19.583822-42.681567-10.71205-1.171307 0.668971-122.854701 72.809588-208.385684 79.169677H605.340649c-17.239991 0-31.132694 13.891487-31.132695 31.131478v71.972766a31.121747 31.121747 0 0 0 21.089615 29.459051c102.603124 35.316804 168.71692 136.915255 168.716921 259.100985 0.167851 149.803285-113.817511 271.989015-254.080054 271.989015S255.687749 603.431004 255.687749 453.293233c0-122.353581 69.461084-226.964834 172.734395-260.440143 12.888031-4.185326 21.590735-16.068684 21.590735-29.625685v-70.299122c0-17.239991-13.891487-31.132694-31.131478-31.132695h-30.128021c-83.521638-4.18411-201.188773-77.830519-202.360081-78.667341-5.188782-3.180653-11.047752-4.854297-16.737654-4.854297z"  horiz-adv-x="1024" />

    
    <glyph glyph-name="h1" unicode="&#59249;" d="M744.427-63.265h-0.018l-4.619 0.103c-107.473 5.497-252.61 106.652-388.285 270.596l-50.115 60.532c-135.675 163.956-206.757 324.085-190.134 428.353 11.732 73.561 121.098 135.641 183.59 135.641 30.78 0 41.931-15.318 45.83-24.464 35.376-62.868 79.148-172.199 79.349-211.412l0.013-2.791-1.001-2.605c-7.802-20.612-25.259-30.487-40.661-39.198-20.29-11.466-31.821-18.995-33.229-40.67-0.419-6.578 5.255-36.501 94.765-146.841l38.269-46.209c89.758-105.929 117.998-117.331 124.61-118.274 21.645-3.011 31.837 6.48 47.405 23.544 11.851 12.994 25.295 27.741 47.478 30.989l2.809 0.4 2.762-0.586c39.088-8.243 139.142-72.724 195.943-120.597 8.201-5.443 22.513-21.602 11.18-57.299-17.778-56.063-95.281-139.212-165.939-139.212v0z"  horiz-adv-x="1024" />

    
    <glyph glyph-name="wupin1" unicode="&#58901;" d="M127.863 148.163v471.915l385.012 177.158 382.641-177.144v-471.942l-383.094-177.148-384.559 177.156zM532.253 451.24v-425.605l322.137 144.402v410.056l-322.137-128.853zM168.989 172.961l322.137-145.326v423.606l-322.137 128.853v-407.133zM197.866 611.526l315.57-124.521 308.433 124.229-308.938 140.106-315.067-139.814z"  horiz-adv-x="1024" />

    
    <glyph glyph-name="fabu11" unicode="&#58900;" d="M946.672 785.515c0 0.043-0.004 0.085-0.004 0.129 0.002 0.828-0.039 1.653-0.105 2.473-0.018 0.236-0.044 0.471-0.067 0.705-0.072 0.69-0.167 1.376-0.286 2.057-0.033 0.191-0.058 0.382-0.095 0.572-0.159 0.821-0.354 1.635-0.579 2.437-0.071 0.248-0.153 0.491-0.23 0.737-0.178 0.574-0.371 1.143-0.583 1.705-0.112 0.296-0.221 0.591-0.342 0.884-0.291 0.704-0.602 1.399-0.945 2.079-0.135 0.269-0.287 0.528-0.429 0.793-0.282 0.519-0.577 1.033-0.889 1.536-0.18 0.291-0.364 0.575-0.553 0.86-0.376 0.562-0.771 1.11-1.185 1.646-0.129 0.167-0.248 0.336-0.381 0.499-0.523 0.65-1.083 1.272-1.661 1.878-0.175 0.184-0.355 0.364-0.536 0.544-0.563 0.563-1.148 1.107-1.761 1.627-0.071 0.061-0.131 0.128-0.203 0.187-0.021 0.018-0.044 0.033-0.064 0.050-0.574 0.476-1.163 0.934-1.777 1.37-0.123 0.088-0.252 0.163-0.376 0.248-0.221 0.152-0.445 0.294-0.668 0.442-0.555 0.36-1.118 0.699-1.689 1.020-0.236 0.133-0.468 0.272-0.705 0.398-0.724 0.381-1.46 0.729-2.206 1.047-0.291 0.125-0.587 0.234-0.883 0.348-0.523 0.204-1.051 0.394-1.584 0.568-0.316 0.103-0.63 0.208-0.949 0.3-0.769 0.223-1.542 0.423-2.323 0.584-0.219 0.045-0.439 0.073-0.659 0.113-0.64 0.118-1.282 0.215-1.927 0.291-0.282 0.033-0.563 0.062-0.845 0.086-0.724 0.064-1.447 0.103-2.174 0.116-0.125 0.002-0.252 0.013-0.378 0.013-0.856 0.002-1.711-0.039-2.565-0.108-0.219-0.018-0.437-0.045-0.654-0.067-0.685-0.071-1.368-0.167-2.049-0.285-0.206-0.035-0.411-0.066-0.615-0.105-0.832-0.163-1.659-0.356-2.48-0.59-0.193-0.055-0.382-0.124-0.574-0.182-0.622-0.19-1.238-0.4-1.85-0.632-0.297-0.112-0.592-0.229-0.887-0.35-0.555-0.231-1.102-0.125-1.646-0.392-0.246-0.119-0.496 0.005-0.74 0.005h-0.001l-809.049-423.061c-10.018-5.234-16.266-15.811-16.187-27.113 0.080-11.301 6.473-21.699 16.563-26.792l217.271-109.706c14.862-7.507 32.997-1.559 40.5 13.308 7.502 14.863 1.535 32.986-13.331 40.487l-164.862 83.205 623.153 325.577-384.129-460.475c-4.522-5.42-6.999-12.256-6.999-19.314v-230.244c0-16.65 13.497-30.15 30.149-30.15 16.651 0 30.15 13.497 30.15 30.15l-0 219.319 405.212 485.741-92.305-623.734-217.411 107.905c-14.913 7.4-33.007 1.311-40.408-13.603-7.404-14.916-1.314-33.007 13.602-40.411l254.567-126.346c4.224-2.096 8.815-3.143 13.403-3.143 4.798 0 9.594 1.145 13.966 3.429 8.552 4.47 14.447 12.763 15.859 22.305l114.068 770.809c0.040 0.274 0.060 0.547 0.092 0.82 0.035 0.288 0.071 0.574 0.096 0.862 0.077 0.849 0.13 1.696 0.135 2.537v0z"  horiz-adv-x="1024" />

    
    <glyph glyph-name="fabu6" unicode="&#58902;" d="M994.133333 810.666667l-4.266666 4.266666c-27.733333 23.466667-66.133333 32-100.266667 19.2L53.333333 509.866667c-29.866667-10.666667-49.066667-38.4-51.2-70.4C0 407.466667 14.933333 377.6 42.666667 362.66666699999996l177.066666-104.533334c10.666667-6.4 23.466667-2.133333 29.866667 8.533334 6.4 10.666667 2.133333 23.466667-8.533333 29.866666L64 398.933333c-12.8 8.533333-21.333333 21.333333-19.2 36.266667 2.133333 14.933333 10.666667 27.733333 25.6 34.133333L906.666667 793.6c12.8 4.266667 25.6 4.266667 36.266666 0L326.4 256c-21.333333-19.2-34.133333-46.933333-34.133333-76.8v-228.266667c0-12.8 8.533333-21.333333 21.333333-21.333333s21.333333 8.533333 21.333333 21.333333V179.20000000000005c0 17.066667 6.4 34.133333 21.333334 44.8l618.666666 541.866667c6.4-12.8 6.4-25.6 4.266667-38.4l-155.733333-595.2c-8.533333-29.866667-29.866667-55.466667-57.6-66.133334s-61.866667-10.666667-89.6 6.4L469.333333 189.866667c-10.666667 6.4-23.466667 2.133333-29.866666-8.533334-6.4-10.666667-2.133333-23.466667 8.533333-29.866666l206.933333-119.466667c21.333333-12.8 46.933333-19.2 70.4-19.2 19.2 0 36.266667 4.266667 55.466667 10.666667 40.533333 17.066667 72.533333 51.2 83.2 96l155.733333 595.2c8.533333 36.266667 0 70.4-25.6 96z"  horiz-adv-x="1192" />

    
    <glyph glyph-name="wode1" unicode="&#58903;" d="M827.6745026111604 70.54872096061706c-5.911997480392457 88.31871371269226-49.56386644363404 170.49698092460633-119.74423267364502 225.45903385162353l-4.2195809268951425 2.9160791015625-0.039523744583129884-0.05454299926757813c-3.9863889026641846 2.437839088439942-8.54350407600403 3.7445018863677966-13.22867726325989 3.7445018863677966-16.089423122406007 0-25.69533225059509-7.7640910434722885-25.695333023071292-20.759577054977417 0-7.560147285461426 3.5065676307678224-14.682369318008423 9.374298362731935-19.508248271942136l-0.06639973640441894-0.10987624168395997 3.7247404003143303-2.6741928577423097c58.86465056419373-42.07565214157105 92.00234910964964-105.8966104030609 98.49613935470583-189.71354218482972l0.06560949325561523-0.9130042934417724a27.7244935798645 27.7244935798645 0 0 1-0.0932765007019043-2.135875825881958c0-14.161443815231321 11.479346208572387-25.648694000244138 25.648694000244138-25.648694000244138 13.685574531555176 0 24.8684907245636 10.723647422790528 25.602846765518187 24.23531593322754h0.5106500244140625l-0.33595453262329106 5.162622957229614z m-82.60038296699524 429.5624680995941c0 127.50911550521849-104.97728261947633 231.25641131401062-234.03257643699644 231.25641131401062-129.05371255874633 0-234.02941391944887-103.73860081672669-234.02941391944887-231.25641131401062 0-68.69979818344116 30.37022918701172-132.78951945304868 83.62326427459718-176.96468619346618-95.57926923751832-51.00807249069214-159.02395897865296-148.32165507316594-166.20704750061034-255.75653826713565l-0.2972202587127686-4.482810688018799a2.219667091369629 2.219667091369629 0 0 1-0.020552501678466797-0.2790392589569092l-0.026876764297485353-0.40867775917053223h0.019762258529663086c0-0.22765800476074216-0.019762258529663086-0.44187801361083984-0.019762258529663086-0.6553077793121337 0-12.006595973968505 9.733967142105103-21.74451510429382 21.74451510429382-21.74451510429382 12.010547962188722 0 21.743724861145022 9.737128887176514 21.743724861145022 21.74451510429382 0 0.22370601654052732-0.007114505767822265 0.43476350784301754-0.015019254684448242 0.6553077793121337h0.45689726829528804l0.3438585090637207 4.463048429489136c7.8834540653228755 102.09756474494935 72.59212034225463 191.50160751342776 165.09089046478272 228.3340079498291 27.613036079406744-12.826322994232179 69.77010798454286-26.187801275253296 107.585074968338-26.187801275253296 35.0316881275177 0 69.05551420211792 7.725357542037965 101.44699996948242 23.12548238754272l23.731781187057496 13.768575553894046 19.377818756103515 12.718817481994629c56.84971747398375 44.288995742797844 89.48388050079346 110.51301157951356 89.48388127326966 181.66962163925174zM511.0328482151032 315.4045448112488c-103.11333154678344 0-186.99903533935546 82.88179450035095-186.99903533935546 184.72640573501587 0 101.8414494895935 83.88570379257203 184.69162499427793 186.99903533935546 184.69162499427793 103.1267695426941 0 187.02274958610533-82.85017550468446 187.02274958610533-184.69162499427793 0.007904748916625978-101.84540225028991-83.88886553764344-184.72640573501587-187.02274958610533-184.72640573501587z m0 0"  horiz-adv-x="1024" />

    
    <glyph glyph-name="sanjiaoxing-" unicode="&#58995;" d="M1024.4096-42.6496H1.28l511.5904 886.0672z m-909.6192 65.536h796.16L512.8704 712.3456z"  horiz-adv-x="1024" />

    
    <glyph glyph-name="fabu7" unicode="&#58981;" d="M293.6 9.6c-3.4 0-7 0.8-10.4 2.5-8.3 3.8-12.2 12.5-11.7 25.9l-1.4 268c0.4 8.5 4.9 16.7 11.9 21.5l394.9 265.1c4.5 3 9.1 4.5 14 4.5 9.1 0 17.2-4.5 21.8-12.1 3.8-6.5 5.1-14.1 3.6-20.6-1.6-7.3-5.4-13.2-11.5-17.4L323.6 291.2 322 99.3l35.2 25.4c5.4 5.5 12 8.4 18.6 8.4 7.2 0 13.6-2.9 18.6-8.5 5.1-5.3 7.6-11.8 7.6-19.5 0-7.5-2.8-14.5-7.8-19.2l-82.3-68.2c-5.1-5.3-11.8-8.1-18.3-8.1z m236 4.3c-7 0-13.5 2.7-18.3 7.7L369.5 177.4c-5.3 6-8 12.6-8 19.5s2.8 14.1 7.6 19.5c4.9 5.1 11.5 8 18.6 8 6.9 0 13.4-2.6 17.8-7.2l120.9-134.9 344.3 606-731.6-188.5 90.5-88.2c3.4-3.8 7.8-10.6 7.8-19.2 0.4-7-2.2-14-7.1-19.5-4.9-5.1-11.5-8-18.6-8-6.9 0-13.4 2.6-17.8 7.2L70.4 493.4c-6.7 7-9.4 16.9-7 26.3 2.4 9.6 9.6 17.3 18.4 19.7l846 221.8c1.5 0.3 4.1 0.8 6.7 0.8 8.1 0 16.4-4.5 21-11.4 6.3-9 6.4-21.9 0.3-31.5L550.9 25c-3.9-5.9-10.8-10.1-18.3-11h-3z"  horiz-adv-x="1024" />

    
    <glyph glyph-name="wode2" unicode="&#58904;" d="M693.90598 382.732124c35.547611 41.708937 57.016575 95.78453 57.016575 154.881486 0 131.952264-106.969267 238.925624-238.923578 238.925624S273.074376 669.566898 273.074376 537.614633c0-59.096956 21.467941-113.172549 57.016575-154.881486-95.779414-60.448744-159.411663-167.202093-159.411663-288.831244l0-34.132378c0-37.705763 30.562063-68.263733 68.263733-68.263733l546.111912 0c37.700647 0 68.263733 30.55797 68.263733 68.263733l0 34.132378C853.318666 215.530031 789.685393 322.28337999999997 693.90598 382.732124zM324.272431 537.614633c0 103.681384 84.048231 187.730639 187.725522 187.730639s187.725522-84.050278 187.725522-187.730639c0-103.674221-84.048231-187.724499-187.725522-187.724499S324.272431 433.940412 324.272431 537.614633zM802.12061 76.832132c0-18.84623-15.281031-34.132378-34.132378-34.132378L256.008698 42.699753999999984c-18.851347 0-34.132378 15.286148-34.132378 34.132378l0 34.132378c0 103.186104 57.241702 192.992479 141.696186 239.427044 40.764426-32.360012 92.334965-51.696406 148.425448-51.696406 56.091506 0 107.661022 19.336394 148.425448 51.696406 84.454484-46.434565 141.696186-136.241964 141.696186-239.427044L802.119587 76.832132z"  horiz-adv-x="1024" />

    
    <glyph glyph-name="i" unicode="&#58885;" d="M509.90543446 257.18656654999995c-69.2034674 0-125.30530757 56.06916015-125.30530755 125.27290453S440.70169008 507.77530267 509.90543446 507.77530267c69.1926664 0 125.28315159-56.11208721 125.2831516-125.31583161S579.09810114 257.18656654999995 509.90543446 257.18656654999995L509.90543446 257.18656654999995zM509.90543446 520.3066920599999c-76.12636213 0-137.82617292-61.71033481-137.82617292-137.84722098 0-76.09368213 61.69981081-137.80457093 137.82617292-137.80457091 76.10448313 0 137.81481797 61.71061182 137.81481795 137.80457091C647.72025241 458.59635722 586.00991788 520.3066920599999 509.90543446 520.3066920599999L509.90543446 520.3066920599999zM523.61025684 451.44774926c-4.86627135 0-9.04349345-1.59328765-12.51006436-4.73693593-3.4881729-3.14364829-5.22159697-6.93341874-5.22159696-11.36875743 0-4.43561563 1.73370078-8.22510884 5.22159696-11.32583008 3.46657088-3.14364829 7.64379301-4.6940089 12.51006436-4.69400892 4.85547033 0 9.02189117 1.55036062 12.46713701 4.69400892 3.44496889 3.10072123 5.17839293 6.89021471 5.17839293 11.32583008 0 4.43561563-1.73342379 8.22510884-5.17839293 11.36875743S528.46572718 451.44774926 523.61025684 451.44774926L523.61025684 451.44774926zM528.31478975 326.00285927000004c-3.84349851 0-6.54596708 0.60291813-8.10657473 1.80847716-1.55036062 1.24904004-2.33606496 3.53137692-2.33606496 6.89021471 0 1.37809847 0.23651453 3.35911477 0.73225327 5.98597625 0.47358274 2.62658451 1.01141785 4.95240243 1.6143357 6.97606883l7.4070015 25.49398814c0.71092822 2.32526393 1.21691399 4.86599436 1.48610853 7.66539503 0.26891756 2.79912368 0.40877671 4.78013998 0.40877668 5.89984491 0 5.33985412-1.94833631 9.68933838-5.82423781 13.04817615-3.87562454 3.35883778-9.38774108 5.03853351-16.52582505 5.03853352-3.96203264 0-8.18218179-0.68904921-12.6283215-2.0671474-4.43561563-1.33489444-9.09694454-3.01431316-13.9632156-4.95212544l-1.98101628-7.88086123c1.43154954 0.5597141 3.17577431 1.07650087 5.17811594 1.67941875 2.02422034 0.60291813 4.00495965 0.90451543 5.9103689 0.90451544 3.9296296 0 6.5675691-0.68904921 7.95646857-1.93781229 1.37809847-1.2919671 2.07739471-3.57430399 2.07739471-6.84728767 0-1.80875414-0.22571353-3.78977047-0.67797122-5.98597625-0.45198073-2.19620585-1.01197182-4.52174674-1.67941877-6.93341875l-7.4286035-25.57984253c-0.66744719-2.67006553-1.14130694-5.08146058-1.44262751-7.19153529-0.30132058-2.15327875-0.44173373-4.22042617-0.4417337-6.28729657 0-5.21079596 1.99181733-9.56028026 5.98597627-12.96232206 3.98363465-3.40204181 9.59268327-5.1246646 16.77369453-5.1246646 4.69373194 0 8.806148 0.60291813 12.34832595 1.80847716 3.54217794 1.16263198 8.2793909 2.92845906 14.22216311 5.16759167l1.98073932 7.88086121c-1.02277283-0.43093269-2.67006553-0.9903698-4.94187841-1.63649171C532.13696324 326.30417983999996 530.11301987 326.00285927000004 528.31478975 326.00285927000004L528.31478975 326.00285927000004z"  horiz-adv-x="1024" />

    
    <glyph glyph-name="home" unicode="&#58880;" d="M927.744-70.65599999999995H135.168c-16.384 0-32.768 8.192-43.008 20.48-10.24 14.336-14.336 30.72-10.24 47.104 40.96 208.896 210.944 364.544 415.744 380.928 8.192 2.048 14.336 2.048 24.576 2.048v-20.48c-8.192 0-14.336 0-22.528-2.048-196.608-14.336-360.448-163.84-399.36-364.544-2.048-10.24 0-22.528 8.192-30.72 6.144-8.192 16.384-12.288 26.624-12.288h792.576c10.24 0 20.48 4.096 26.624 12.288 6.144 8.192 10.24 18.432 8.192 30.72-24.576 131.072-104.448 243.712-217.088 307.2-12.288 8.192-26.624 14.336-38.912 20.48l8.192 18.432c14.336-6.144 28.672-14.336 40.96-20.48 118.784-67.584 200.704-184.32 227.328-321.536 4.096-16.384 0-32.768-12.288-47.104-10.24-12.288-26.624-20.48-43.008-20.48z m-399.36 430.08h-4.096v20.48h6.144l-2.048-20.48zM536.576 359.424c-129.024 0-235.52 106.496-235.52 235.52S407.552 830.4639999999999 536.576 830.4639999999999s235.52-106.496 235.52-235.52-106.496-235.52-235.52-235.52z m0 450.56c-118.784 0-215.04-96.256-215.04-215.04s96.256-215.04 215.04-215.04 215.04 96.256 215.04 215.04S655.36 809.984 536.576 809.984z"  horiz-adv-x="1024" />

    
    <glyph glyph-name="gengxin1" unicode="&#58913;" d="M512.01165085 874.50055111C240.42580651 874.50055111 20.26329429 654.3380389 20.26329429 382.75219456S240.42580651-108.99732706999998 512.01165085-108.99732706999998s491.72505486 220.16251221 491.72505486 491.74952163S783.59866027 874.50055111 512.01165085 874.50055111zM533.13812707 330.43058233l0-238.95415922-40.06492387 0L493.0732032 330.73466937l-7.40294656-7.40294656-47.40146062-49.82483627-64.55616399 0 43.92950898 43.22929323 78.15968996 78.18532181L530.40833422 394.92150158l121.3878181-121.41578012-63.83847197 0L533.13812707 330.43058233zM822.44141056 226.85807047000003c-22.90672526-21.79989504-59.74203506-39.36354304-89.57984768-42.71316082-1.91306866-0.21554062-4.02070642-0.31806805-6.44408206-0.31806805-0.00116509 0-0.00233017 0-0.00349525 0-2.09948217 0-4.18614841 0.07456541-6.20407467 0.14796573-1.90957341 0.06990507-3.88089629 0.14097522-5.77881885 0.14097521-17.06382677-0.02446677-33.06276637-0.12116878-48.5339227-0.21437553l-0.42991616-0.00233018c-15.19852658-0.10835285-30.91901099-0.22020096-47.86865948-0.22020096l-9.47097145 0.00932068 0 40.0334666 4.66033777 0c15.5713536 0 30.22462066 0.08621625 44.39554276 0.17010232l15.99660942 0.09553693c13.17244473 0.08272099 26.7911168 0.16893725 41.22651307 0.16893725 2.65522745 0 5.27783253-0.09204167 7.26663168-0.1724325 0.55108494-0.01631118 1.15576377-0.04077795 1.76044259-0.0675749 0.95420416-0.03961287 1.90491307-0.08155591 2.84513622-0.08155591 0.80856861 0 1.49829859 0.03262237 2.11113301 0.10019726 21.28958805 2.40706446 49.84697287 16.13991481 66.41214351 31.93962496 26.44508672 25.15883349 35.19254073 55.11198947 27.53094542 94.27047765-3.06533717 15.76242745-11.06830222 29.98111801-24.46793842 43.47279588-15.34183197 15.47931193-32.53964345 24.5518245-52.58142606 27.74066062-4.53916899 0.72002219-9.13659221 1.09168413-14.00314994 1.48431758l-1.33984711 0.10951794-9.12610645 0.79575268-32.03865714 3.10961038 0 32.13186389 0.02446677 5.36637895c0.58720256 30.6184192-6.10620757 57.78702336-20.46121301 83.12178461-30.70463545 54.15429006-86.58674574 86.48654848-149.48499456 86.48654848-9.06785223 0-18.26386375-0.70021575-27.32938582-2.07851065-71.94396445-10.94130802-130.00594773-67.26498531-141.1977489-136.96965746-3.20980765-19.86352469-18.20444445-33.11752533-38.20078877-33.7711377-29.72596451-1.01944889-54.55857437-11.07645781-75.91224206-30.74191816-28.48514958-26.21789525-40.40396345-58.81113259-36.43568583-99.64268202 2.46648377-25.35689785 12.93709767-47.02164309 32.01302528-66.23738084 24.64619634-24.83144477 55.32986027-40.30027093 80.07508878-40.36668074 29.80169501-0.07223523 52.00703943-0.18757859 70.4794533-0.29010603l8.56337066-0.04893355c9.13426205-0.0524288 16.49759573-0.09553693 22.5152569-0.09553692l4.66033777 0 0-40.03929202-4.66033777 0c-7.67907157 0-17.6685056 0.04660338-31.29766344 0.12116878l-6.88098872 0.03844779c-16.50575133 0.09437184-37.04852025 0.21204537-63.47496562 0.27379484-35.51759929 0.06640981-76.04506169 19.57924409-108.40644722 52.19927837-25.47573646 25.6528293-40.09055573 56.12211769-43.43667826 90.56084878-5.20093696 53.43892821 11.33510656 98.1839963 49.15025238 132.99205916 28.3266981 26.06643427 62.54406315 39.9658917 101.70255132 41.31156424 0.00466034 0.02446677 0.00932067 0.05009863 0.01281593 0.07573048 6.88098873 42.87976789 27.29909362 81.88446493 59.04880981 112.80114574 31.72058909 30.88871879 71.71560789 50.74525298 115.66142806 57.4246821 11.10675001 1.68937245 22.37311659 2.54570951 33.4868571 2.54570952 37.55183673 0 74.33704789-9.75874731 106.37687011-28.2218405 32.31944249-18.62387485 59.23405824-45.80063459 77.83230123-78.58727595 17.71976931-31.25688547 26.34721963-66.14300899 25.64350862-103.69368064-0.00233017-0.09437184-0.00349525-0.18874368-0.00582542-0.28428061 1.37246947-0.11883861 2.80552334-0.23418197 4.31780295-0.34952533l0.59419307-0.04893355c5.86270493-0.48351005 11.92580437-0.98449635 17.83860792-1.92122424 28.32436793-4.51936256 53.45640448-17.66384526 74.70521458-39.0676116 18.88718393-19.01767339 30.78386119-40.55891968 35.35798272-64.02139022C871.8864293 305.45350200999997 858.69534322 261.38767815000006 822.44141056 226.85807047000003z"  horiz-adv-x="1024" />

    
    <glyph glyph-name="down" unicode="&#58892;" d="M647.763 405.018c12.499 12.499 32.755 12.499 45.253 0v0c12.499-12.499 12.499-32.755 0-45.253l-316.781-316.781c-12.499-12.499-32.755-12.499-45.253 0v0c-12.499 12.499-12.499 32.755 0 45.253l316.781 316.781zM330.982 679.763c-12.499 12.499-12.499 32.755 0 45.253v0c12.499 12.499 32.755 12.499 45.253 0l316.781-316.781c12.499-12.499 12.499-32.755 0-45.253v0c-12.499-12.499-32.755-12.499-45.253 0l-316.781 316.781z"  horiz-adv-x="1024" />

    
    <glyph glyph-name="fabu8" unicode="&#58905;" d="M1023 859L990.1 894.7 0.4 327.70000000000005l-0.4-51L265.5 135l21.6 50.7L67.4 303l820.7 470.2-580.8-706.5-21.1-192.9h50l21.8 172.9 577.8 702.8-262-804.9-217.7 127.7-21.6-50.7 235.5-129.2 35.8 8.1L1023 859z m0 0"  horiz-adv-x="1024" />

    
    <glyph glyph-name="wupinku" unicode="&#58906;" d="M1629.90723 327.054316c155.318913 4.551821 277.641638 130.291537 277.641638 284.472842C1907.548868 767.987846 1778.403274 896 1620.232701 896c-158.163628 0-287.314779-128.012154-287.314779-284.472842 0-113.785803 64.860325-208.803158 160.443011-256.024308-198.560519-56.890124-344.781346-239.52413-344.211848-455.154325 0-14.220795 9.67453-23.895324 23.895325-23.895324 14.226351 0 23.895324 9.67453 23.895324 23.895324 0 234.408367 194.012865 426.705791 430.695058 426.705791h2.272438zM1380.708571 611.527158c0 130.291537 108.099152 237.251692 239.52413 237.251692 131.995865 0 239.525519-106.960155 239.525519-237.251692 0-130.285981-108.092207-237.246136-239.525519-237.246136-131.994476 0-239.52413 106.960155-239.52413 237.246136zM1989.401084 183.367062h-85.630352l11.963636 15.188942c7.553495 9.591188 11.54693 21.131173 11.546929 33.367057 0 29.822276-24.260637 54.084302-54.081523 54.084302-17.153017 0-33.4754-8.299399-43.662479-22.19933l-7.565996-10.327369-7.570163 10.32598c-10.1843 13.902709-26.506683 22.200719-43.66109 22.200719-29.822276 0-54.084302-24.262026-54.084302-54.084302 0-12.235884 3.994824-23.77309 11.551097-33.368446l11.963636-15.187553H1654.660969c-17.457213 0-31.65995-14.204126-31.65995-31.661339v-51.047902c0-13.94299 9.325885-26.42612 22.678542-30.357049l6.732584-1.982133V-79.009238c0-16.891882 13.74436-30.636242 30.637631-30.636242h136.040694l1.736276-0.725068a3.100294 3.100294 0 0 1 2.293273 0.001389l1.727942 0.723679h136.04625c16.891882 0 30.634853 13.74436 30.634853 30.636242V68.318639l6.733973 1.982133c13.354046 3.930929 22.68132 16.414058 22.68132 30.357049v51.047902c0.04306 8.454969-3.203082 16.384889-9.142535 22.357678-5.968622 5.999181-13.924933 9.303661-22.400738 9.303661zM1819.179367-103.940771H1683.048387c-13.713802 0-24.871806 11.184395-24.871806 24.930144V68.995092h161.002786v-172.935863z m0 178.641961H1654.660969c-14.294413 0.093064-25.894125 11.737225-25.894125 25.95802V151.707112c0 14.277744 11.616381 25.895514 25.894125 25.895514h164.518398v-102.901436z m0 108.906173h-48.437932c-26.616416 0.076396-48.25736 21.750676-48.25736 48.315698 0 26.676144 21.70206 48.378204 48.378205 48.378205 26.642807 0 48.317087-21.67428 48.317087-48.315699v-48.378204z m5.703319 48.49766c0.075007 26.583079 21.777068 48.196243 48.376816 48.196243 26.642807 0 48.317087-21.67428 48.317087-48.315699 0-26.642807-21.67428-48.317087-48.317087-48.317087h-48.376816v48.436543zM1985.94659-79.009238c0-13.74575-11.184395-24.930145-24.930145-24.930144h-136.072642V68.995092h161.002787V-79.009238z m29.409736 179.667059c0-14.279133-11.616381-25.898292-25.895514-25.898293H1824.942414v102.901437h164.518398c14.277744 0 25.895514-11.61777 25.895514-25.898292v-51.104852zM1921.577978 231.985567c0 26.641418-21.67428 48.315698-48.317087 48.315699-26.599748 0-48.301808-21.614552-48.376816-48.196243v-48.436543h48.376816c26.641418 0 48.317087 21.67428 48.317087 48.317087z m-83.487093 0.108344c0.054172 19.299055 15.83067 34.999156 35.168617 34.999156 19.358782 0 35.108889-15.750106 35.108889-35.1075s-15.751496-35.1075-35.108889-35.1075h-35.168617v35.215844zM1628.765455 151.705723v-51.047902c0-14.219406 11.599712-25.863567 25.894125-25.95802h164.518398v102.900047H1654.660969c-14.279133 0.001389-25.895514-11.616381-25.895514-25.894125z m177.205714-63.797724H1654.685972c-7.008999 0.045838-12.710929 5.765825-12.710929 12.749822v51.047902c0 6.995109 5.692207 12.687316 12.685926 12.687316h151.311589v-76.48504zM1770.86228 280.301266c-26.676144 0-48.378204-21.70206-48.378205-48.378205 0-26.565022 21.640944-48.239302 48.25736-48.315698h48.437932v48.378204c0 26.641418-21.675669 48.315698-48.317087 48.315699z m35.108889-83.484316h-35.218622c-19.332391 0.054172-35.058884 15.802889-35.058884 35.106111 0 19.392119 15.776498 35.170006 35.168617 35.170006 19.358782 0 35.108889-15.750106 35.108889-35.1075v-35.168617zM1824.942414-103.940771h136.072642c13.74575 0 24.930145 11.184395 24.930145 24.930144V68.995092H1824.942414v-172.935863z m13.209588 159.727665h134.586389v-134.797521c0-6.463114-5.258833-11.721946-11.721946-11.721946h-122.863054V55.786894zM1658.176581-79.009238c0-13.74575 11.158004-24.930145 24.871806-24.930144h136.13098V68.995092H1658.176581V-79.009238z m13.209587 134.796132h134.58639V-90.732573H1683.048387c-6.431166 0-11.662218 5.258833-11.662219 11.721946v134.797521zM1989.462201 177.662354H1824.942414v-102.901436h164.518398c14.277744 0 25.895514 11.61777 25.895514 25.898292v51.106241c0 14.277744-11.616381 25.896903-25.894125 25.896903z m12.687316-77.004533c0-6.997887-5.692207-12.690094-12.687316-12.690094H1838.152002v76.48504h151.310199c6.995109 0 12.687316-5.692207 12.687316-12.690094v-51.104852zM2024.119658 186.314564c-9.253656 9.303661-21.583994 14.427759-34.718574 14.427759H1937.514213c4.689334 9.638415 7.143734 20.286648 7.143734 31.180738 0 39.402352-32.054432 71.458173-71.455395 71.458174-19.353226 0-37.770253-7.847967-51.229864-21.685393-13.456833 13.837425-31.875249 21.685392-51.229864 21.685393-39.402352 0-71.458173-32.055821-71.458173-71.458174 0-10.89409 2.4544-21.542323 7.145122-31.180738h-51.768804c-27.038678 0-49.0366-21.997922-49.0366-49.0366v-51.047902c0-19.490739 11.705278-37.189642 29.411126-44.936211v-134.732237c0-26.473347 21.538156-48.010114 48.012892-48.010113h132.763994c1.994634-0.632004 4.107334-0.96398 6.158918-0.963981 2.052973 0 4.167062 0.331976 6.158918 0.963981h132.765383c26.473347 0 48.008725 21.538156 48.008725 48.010113v134.732237c17.711404 7.743791 29.415293 25.442693 29.415293 44.936211v51.006231c0.066673 13.073463-4.974083 25.378798-14.19996 34.650512z m-3.175301-85.656743c0-13.94299-9.327274-26.42612-22.68132-30.357049l-6.733973-1.982133V-79.009238c0-16.891882-13.742971-30.636242-30.634853-30.636242h-136.04625l-1.727942-0.723679a3.100294 3.100294 0 0 0-2.293273-0.001389l-1.736276 0.725068h-136.040694c-16.89466 0-30.637631 13.74436-30.637631 30.636242V68.318639l-6.732584 1.982133c-13.352657 3.930929-22.678542 16.414058-22.678542 30.357049v51.047902c0 17.457213 14.202737 31.661339 31.65995 31.661339h85.512286l-11.963636 15.187553c-7.556273 9.595355-11.551097 21.133951-11.551097 33.368446 0 29.822276 24.262026 54.084302 54.084302 54.084302 17.154406 0 33.47679-8.299399 43.66109-22.200719l7.570163-10.32598 7.565996 10.327369c10.187078 13.90132 26.509461 22.19933 43.662479 22.19933 29.820887 0 54.081524-24.262026 54.081523-54.084302 0-12.237273-3.993435-23.775868-11.546929-33.367057l-11.963636-15.188942h85.630352c8.477194 0 16.432116-3.30448 22.400738-9.303661 5.939453-5.972789 9.185594-13.902709 9.142535-22.357678v-51.047902z"  horiz-adv-x="3277" />

    
    <glyph glyph-name="fabu9" unicode="&#58907;" d="M824.74 115.09000000000003l-367.206 112.995 367.206 423.756-480.201-423.756-282.539 112.995 903.955 480.199-141.217-706.188zM457.534-54.45500000000004v197.767l112.995-56.551-112.995-141.217zM457.534-54.45500000000004z"  horiz-adv-x="1029" />

    
    <glyph glyph-name="wupinku1" unicode="&#58920;" d="M552.43776 327.06048c155.3152 4.55168 277.64224 130.28864 277.64224 284.47232 0 156.45696-129.14688 284.4672-287.31904 284.4672-158.16192 0-287.3088-128.01024-287.3088-284.47232 0-113.78688 64.86016-208.80384 160.44032-256.0256-198.55872-56.89344-344.7808-239.51872-344.21248-455.14752 0-14.21824 9.67168-23.89504 23.89504-23.89504 14.22848 0 23.89504 9.6768 23.89504 23.89504 0 234.40384 194.01216 426.70592 430.6944 426.70592h2.27328z m-249.19552 284.4672c0 130.29376 108.09856 237.24544 239.51872 237.24544 131.9936 0 239.52384-106.9568 239.52384-237.24544 0-130.28352-108.09344-237.24544-239.52384-237.24544-131.9936 0.00512-239.51872 106.96192-239.51872 237.24544zM911.9232 183.36768h-85.62688l11.96544 15.19104a53.4016 53.4016 0 0 1 11.5456 33.36704c0 29.824-24.25856 54.08256-54.08256 54.08256a54.34368 54.34368 0 0 1-43.66336-22.20032l-7.56736-10.32704-7.57248 10.32704a54.3232 54.3232 0 0 1-43.65824 22.20032c-29.81376 0-54.08256-24.25856-54.08256-54.08256 0-12.2368 3.9936-23.77216 11.55072-33.37216l11.96032-15.18592h-85.504a31.70304 31.70304 0 0 1-31.66208-31.66208v-51.0464c0-13.94688 9.32352-26.42944 22.67648-30.36672l6.74304-1.97632v-147.32288a30.6688 30.6688 0 0 1 30.62784-30.63808h136.03328l1.73568-0.72704c0.70656-0.29184 1.5872-0.29696 2.29888 0l1.72544 0.72704h136.04352a30.6688 30.6688 0 0 1 30.63296 30.63808v147.32288l6.73792 1.97632c13.34784 3.93728 22.67648 16.41984 22.67648 30.36672v51.0464a31.23712 31.23712 0 0 1-9.1392 22.35392 31.32416 31.32416 0 0 1-22.39488 9.30816z m-170.21952-287.29856h-136.12544c-13.71648 0-24.87296 11.18208-24.87296 24.92416v147.99872h160.9984v-172.92288z m0 178.63168h-164.51584c-14.29504 0.1024-25.89184 11.74016-25.89184 25.96352v51.0464a25.91744 25.91744 0 0 0 25.89184 25.89184h164.51584v-102.90176z m0 108.90752h-48.4352c-26.61888 0.08192-48.256 21.74976-48.256 48.31744 0 26.6752 21.69856 48.37888 48.37376 48.37888 26.63936 0 48.31744-21.67296 48.31744-48.31744v-48.37888z m5.70368 48.50176c0.08192 26.57792 21.7856 48.19456 48.37888 48.19456 26.64448 0 48.32256-21.67296 48.32256-48.31744s-21.67296-48.32256-48.32256-48.32256h-48.37888v48.44544z m161.07008-311.11168a24.96 24.96 0 0 0-24.92928-24.92928H747.4688v172.92288h161.00352v-147.9936z m29.40416 179.66592a25.92256 25.92256 0 0 0-25.89184-25.90208H747.4688v102.89664h164.52096a25.91744 25.91744 0 0 0 25.89184-25.89696v-51.0976zM844.1088 231.99232c0 26.63936-21.67808 48.31744-48.31744 48.31744-26.60352 0-48.31232-21.61664-48.37888-48.19456v-48.44032h48.37888c26.63936-0.00512 48.31744 21.66784 48.31744 48.31744z m-83.48672 0.1024c0.05632 19.3024 15.83104 35.00032 35.16416 35.00032a35.14368 35.14368 0 0 0 35.10784-35.10272 35.1488 35.1488 0 0 0-35.10784-35.10784h-35.16416v35.21024zM551.30112 151.71072v-51.0464c0-14.22336 11.5968-25.86624 25.89184-25.96352h164.51584v102.90176h-164.51584a25.91744 25.91744 0 0 1-25.89184-25.89184z m177.19808-63.80032h-151.28576a12.80512 12.80512 0 0 0-12.70784 12.75392v51.0464a12.70272 12.70272 0 0 0 12.68736 12.69248h151.31648l-0.01024-76.4928zM693.39136 280.30464c-26.6752 0-48.37376-21.70368-48.37376-48.37888 0-26.56256 21.63712-48.23552 48.256-48.31744h48.4352v48.37888c-0.00512 26.64448-21.67808 48.31744-48.31744 48.31744z m35.10784-83.48672h-35.22048c-19.328 0.0512-35.06176 15.80544-35.06176 35.10272a35.20512 35.20512 0 0 0 35.16928 35.16928 35.1488 35.1488 0 0 0 35.10784-35.10272v-35.16928h0.00512zM747.4688-103.93088h136.06912a24.96 24.96 0 0 1 24.9344 24.92416v147.99872H747.4688v-172.92288z m13.21472 159.7184h134.58432v-134.79424a11.73504 11.73504 0 0 0-11.7248-11.7248h-122.85952v146.51904zM580.70528-79.0016c0-13.75232 11.1616-24.92928 24.87296-24.92928h136.12544v172.92288h-160.9984v-147.9936zM593.92 55.78752h134.58432v-146.51904h-122.92608a11.70432 11.70432 0 0 0-11.65824 11.7248v134.79424zM911.98976 177.65888H747.4688v-102.89664h164.52096a25.92256 25.92256 0 0 1 25.89184 25.90208v51.10272a25.91232 25.91232 0 0 1-25.89184 25.89184z m12.69248-76.99456a12.70784 12.70784 0 0 0-12.69248-12.69248h-151.30624V164.4544h151.30624a12.70784 12.70784 0 0 0 12.69248-12.69248v-51.0976zM946.64704 186.32192a48.64 48.64 0 0 1-34.71872 14.42304h-51.88608a71.2192 71.2192 0 0 1 7.14752 31.1808c0 39.40352-32.05632 71.45984-71.45472 71.45984a71.42912 71.42912 0 0 1-51.23072-21.6832 71.424 71.424 0 0 1-51.23072 21.6832c-39.3984 0-71.45472-32.05632-71.45472-71.45984 0-10.89536 2.45248-21.53984 7.1424-31.1808h-51.7632c-27.03872 0-49.03936-21.99552-49.03936-49.03424v-51.0464a49.2288 49.2288 0 0 1 29.4144-44.93824v-134.72768c0-26.47552 21.53472-48.01024 48.01536-48.01024h132.76672c1.99168-0.63488 4.10624-0.96256 6.15424-0.96256s4.16256 0.32768 6.15424 0.96256h132.76672c26.48064 0 48.01024 21.53472 48.01024 48.01024v134.72768a49.22368 49.22368 0 0 1 29.4144 44.93824v51.00032a48.4864 48.4864 0 0 1-14.208 34.65728z m-3.17952-85.6576c0-13.94688-9.32352-26.42944-22.67648-30.36672l-6.73792-1.97632v-147.32288a30.6688 30.6688 0 0 0-30.63296-30.63808h-136.04352l-1.72544-0.72704a3.10272 3.10272 0 0 0-2.29888 0l-1.73568 0.72704h-136.03328a30.6688 30.6688 0 0 0-30.62784 30.63808v147.32288l-6.74304 1.97632c-13.34784 3.93728-22.67648 16.41984-22.67648 30.36672v51.0464a31.70304 31.70304 0 0 0 31.66208 31.66208h85.50912l-11.96032 15.18592a53.44256 53.44256 0 0 0-11.55584 33.37216c0 29.824 24.2688 54.08256 54.08256 54.08256 17.15712 0 33.47968-8.29952 43.66336-22.20032l7.56736-10.32704 7.56736 10.32704a54.3488 54.3488 0 0 0 43.66336 22.20032c29.81888 0 54.08256-24.25856 54.08256-54.08256 0-12.2368-3.9936-23.77728-11.55072-33.36704l-11.96032-15.19104h85.62688c8.47872 0 16.4352-3.30752 22.40512-9.30304a31.232 31.232 0 0 0 9.13408-22.35392v-51.05152h-0.00512z"  horiz-adv-x="1024" />

    
    <glyph glyph-name="yuanxing" unicode="&#58893;" d="M512 729.835c-190.998 0-345.835-154.838-345.835-345.835S321.002 38.165 512 38.165 857.834 193.003 857.834 384 702.997 729.835 512 729.835z m0-611.86c-146.924 0-266.024 119.111-266.024 266.025 0 146.923 119.1 266.024 266.024 266.024 146.922 0 266.024-119.1 266.024-266.024 0-146.915-119.102-266.024-266.024-266.024z"  horiz-adv-x="1024" />

    
    <glyph glyph-name="home-copy" unicode="&#58881;" d="M893.68774194-46.01118280000003H126.67870968c-15.85548387 0-31.71096774 7.92774194-41.62064516 19.81935484-9.90967742 13.87354839-13.87354839 29.72903226-9.90967742 45.58451613 39.63870968 202.15741935 204.13935484 352.78451613 402.33290322 368.64 7.92774194 1.98193548 13.87354839 1.98193548 23.78322581 1.98193548v-19.81935484c-7.92774194 0-13.87354839 0-21.80129032-1.98193548-190.26580645-13.87354839-348.82064516-158.55483871-386.47741936-352.78451613-1.98193548-9.90967742 0-21.80129032 7.92774194-29.72903226 5.94580645-7.92774194 15.85548387-11.8916129 25.76516129-11.8916129h767.00903226c9.90967742 0 19.81935484 3.96387097 25.76516129 11.8916129 5.94580645 7.92774194 9.90967742 17.83741935 7.92774193 29.72903226-23.78322581 126.84387097-101.07870968 235.85032258-210.08516129 297.29032258-11.8916129 7.92774194-25.76516129 13.87354839-37.65677419 19.81935484l7.92774193 17.83741936c13.87354839-5.94580645 27.74709677-13.87354839 39.63870968-19.81935484 114.95225806-65.40387097 194.22967742-178.37419355 219.99483871-311.16387097 3.96387097-15.85548387 0-31.71096774-11.8916129-45.58451613-9.90967742-11.8916129-25.76516129-19.81935484-41.62064516-19.81935484z m-386.47741936 416.20645161h-3.96387097v19.81935484h5.94580645l-1.98193548-19.81935484zM515.13806452 370.19526881c-124.86193548 0-227.92258065 103.06064516-227.92258065 227.92258065S390.27612903 826.0404301 515.13806452 826.0404301s227.92258065-103.06064516 227.92258064-227.92258064-103.06064516-227.92258065-227.92258064-227.92258065z m0 436.02580646c-114.95225806 0-208.10322581-93.15096774-208.10322581-208.10322581s93.15096774-208.10322581 208.10322581-208.10322581 208.10322581 93.15096774 208.1032258 208.10322581S630.09032258 806.22107527 515.13806452 806.22107527z"  horiz-adv-x="1024" />

    
    <glyph glyph-name="fabu10" unicode="&#58908;" d="M51.2 384l278.756-136.533 22.755 45.51L176.356 384l671.288 364.089L398.222 224.71v-295.82h56.89V201.956l460.8 534.755L773.688 31.29 529.067 179.2l-34.134-45.511L819.2-59.733 1006.933 890.31z"  horiz-adv-x="1024" />

    
    <glyph glyph-name="fabu12" unicode="&#58918;" d="M301.5 9.7c-8.8 0-17.4 1.8-25.4 5.4-23.5 10.5-38 33.9-37 59.5l8 206c0.8 20.2 11.4 38.9 28.3 49.9 0.1 0.1 0.3 0.2 0.4 0.3l202.3 127.8c16.3 10.3 38 5.4 48.3-10.9 10.3-16.3 5.4-38-10.9-48.3L316.9 274l-7.1-183.1 25.8 25.2c13.8 13.5 36 13.3 49.5-0.6 13.5-13.8 13.3-36-0.6-49.5l-39.4-38.5c-11.7-11.5-27.2-17.8-43.6-17.8z m205.4 52.7c-16.3 0-31.8 6.3-43.7 17.9l-1.1 1.1-103.7 109.5c-13.3 14-12.7 36.2 1.3 49.5 14 13.3 36.2 12.7 49.5-1.3L506 136.9l380.9 552.4-742.4-204 97.2-91.9c14-13.3 14.7-35.4 1.4-49.5-13.3-14-35.4-14.7-49.5-1.4l-107 101.3-0.3 0.3c-16.1 15.6-22.7 38.7-17.1 60.4 5.6 21.8 22.4 38.9 44 44.8l775.1 212.9c5.3 1.5 10.8 2.2 16.5 2.2 20.2 0 39.3-9.9 51-26.4 15.1-21.3 15.2-50.1 0.4-71.6l-397.9-577c-10.4-15.2-26.9-24.9-45.2-26.7h-0.4c-2-0.2-3.9-0.3-5.8-0.3zM616 507.4m-41.5 0a41.5 41.5 0 1 1 83 0 41.5 41.5 0 1 1-83 0Z"  horiz-adv-x="1024" />

    
    <glyph glyph-name="fabu13" unicode="&#59761;" d="M1026.777419 860.168342v0.162401c0 0.974409 0 1.948817-0.118111 2.952753 0 0.280512 0 0.546259-0.073818 0.826771-0.088583 0.812007-0.191929 1.624014-0.339567 2.436021 0 0.221456 0 0.442913-0.11811 0.679133-0.191929 0.974409-0.413385 1.934053-0.679133 2.878935-0.073819 0.295275-0.177165 0.575787-0.265748 0.871062-0.206693 0.679133-0.442913 1.343503-0.679133 2.007872-0.132874 0.339567-0.265748 0.693897-0.398622 1.048227q-0.516732 1.240156-1.122046 2.450785c-0.162401 0.324803-0.339567 0.620078-0.501968 0.930117q-0.78248 1.476377-1.697833 2.834643-0.664369 0.989172-1.402558 1.948817l-0.442913 0.590551A35.137762 35.137762 0 0 1 1016.309909 885.665364c-0.664369 0.664369-1.358266 1.313975-2.081691 1.91929l-0.23622 0.221456h-0.073819c-0.679133 0.561023-1.37303 1.107282-2.096455 1.609251l-0.442913 0.295275-0.797243 0.516732c-0.649606 0.428149-1.313975 0.826771-1.993108 1.210629l-0.826771 0.47244c-0.856298 0.457677-1.727361 0.856298-2.613187 1.240156l-1.048227 0.413386c-0.620078 0.23622-1.240156 0.457677-1.874998 0.664369l-1.122046 0.295275c-0.90059 0.265748-1.815943 0.501968-2.746061 0.693897l-0.767715 0.177166c-1.077755 0.206693-2.185037 0.35433-3.277556 0.442913-0.856298 0.088583-1.712597 0.162401-2.568896 0.162401h-0.442913c-1.003936 0-2.022636 0-3.026571-0.132874l-0.767716-0.073819c-0.812007-0.088583-1.60925-0.191929-2.421258-0.339566l-0.723424-0.132874c-0.974409-0.191929-1.963581-0.413385-2.952753-0.693897l-0.679133-0.221457q-1.638778-0.501968-3.233265-1.151573c-0.664369-0.265748-1.299211-0.147638-1.948817-0.457677-0.295275-0.147638-0.590551 0-0.871062 0L19.120907 393.131389a35.87595 35.87595 0 0 1 0.442913-63.67612l256.623769-129.566805a35.595438 35.595438 0 1 1 32.096426 63.484191l-194.734065 98.326677 736.003229 384.537032-453.690508-543.867587a35.610202 35.610202 0 0 1-8.267709-22.810018v-271.948557a35.610202 35.610202 0 1 1 71.220404 0V166.669992l478.596981 573.690394-109.015643-736.71189-256.786171 127.470349a35.610202 35.610202 0 1 1-31.668276-63.79423l300.678844-149.23214A35.610202 35.610202 0 0 1 891.733257-55.229401l134.660304 910.40759c0 0.324803 0.073819 0.649606 0.103346 0.974408s0.088583 0.679133 0.11811 1.0187c0.088583 1.003936 0.162401 2.007872 0.162402 2.952753z m0 0"  horiz-adv-x="1026" />

    
    <glyph glyph-name="bofangsanjiaoxing" unicode="&#58894;" d="M492.032 675.84L135.04 85.05600000000004C124.288 67.39200000000005 124.288 46.20799999999997 134.976 28.351999989999968 145.728 10.624000000000024 164.928-1.0000007932831068e-8 186.36799999 0l714.176 0c21.44 0 40.704 10.624 51.39200001 28.352C957.31199999 37.24800000000005 960 46.976 960 56.70399999999995c0 9.728-2.688 19.52-8.064 28.352l-356.992 590.72c-10.752 17.728-30.016 28.288-51.456 28.288C521.984 704.1279999999999 502.72 693.568 492.032 675.84zM891.712 61.567999999999984L193.792 59.13599999999997l349.696 578.624L891.712 61.567999999999984z"  horiz-adv-x="1024" />

    
    <glyph glyph-name="wupinguanli" unicode="&#58909;" d="M480.822 831.731L64.017 639.944V128.51l416.321-191.788L895.095 128.51V639.944L480.822 831.731z m-33.23-808.057L127.946 167.88V576.014l319.647-127.858v-424.482zM174.71 624.902l306.111 135.84 300.204-136.147L481.36 503.899 174.71 624.902zM831.168 164.81L511.522 21.526v426.63l319.646 127.858V164.81z"  horiz-adv-x="1024" />

    
    <glyph glyph-name="address" unicode="&#58915;" d="M512.3 829.1c-189 0-342.2-151.2-342.2-337.8 0-186.5 342.2-554.9 342.2-554.9s342.2 368.4 342.2 554.9c0 186.6-153.2 337.8-342.2 337.8z m0-505.8c-90.4 0-163.7 73.3-163.7 163.7 0 90.4 73.3 163.7 163.7 163.7S676 577.4 676 487c-0.1-90.5-73.3-163.7-163.7-163.7z m0 0"  horiz-adv-x="1024" />

    
    <glyph glyph-name="wode3" unicode="&#58910;" d="M510.464 874.496c-142.336 0-258.56-115.712-258.56-258.56s115.712-258.56 258.56-258.56c142.336 0 258.56 115.712 258.56 258.56-0.512 142.336-116.224 258.56-258.56 258.56z m0-466.432c-114.688 0-207.872 93.184-207.872 207.872 0 114.688 93.184 207.872 207.872 207.872 114.688 0 207.872-93.184 207.872-207.872-0.512-114.688-93.696-207.872-207.872-207.872zM107.008 124.928c-19.456-41.472-29.184-85.504-29.184-130.56 0-56.832 46.08-102.912 102.912-102.912H839.68c56.832 0 102.912 46.08 102.912 102.912 0 45.056-9.728 89.088-29.184 130.56-18.432 39.936-45.056 75.776-78.336 107.008-67.584 62.464-157.184 98.304-246.784 98.304H432.64c-89.6 0-179.712-35.84-246.784-98.304-33.28-30.72-59.904-66.56-78.848-107.008z m114.688 71.168c57.856 53.248 135.168 83.456 210.944 83.456h155.136c76.288 0 153.088-30.208 210.944-83.456 59.904-54.784 93.184-126.464 93.184-201.728 0-28.672-23.552-52.224-52.224-52.224H180.736c-28.672 0-52.224 23.552-52.224 52.224 0 75.264 33.28 146.944 93.184 201.728z"  horiz-adv-x="1024" />

    
    <glyph glyph-name="fabu14" unicode="&#59167;" d="M945.93 765.241c-7.638 15.276-26.279 21.619-41.684 13.981L92.312 375.973c-15.276-7.638-21.619-26.279-13.981-41.684 1.683-3.365 3.884-6.343 6.473-8.803 3.365-3.237 7.378-5.696 12.169-7.249l273.148-85.828 41.943 52.041-222.919 70.035 611.539 303.957-327.131-395.999a22.868 22.868 0 0 1-2.071-2.848l-37.801-46.991v-194.957c0-17.218 13.852-31.069 31.069-31.069s31.069 13.852 31.069 31.069v175.54l297.097-93.206c3.495-1.036 6.991-1.553 10.485-1.423 15.017-0.388 28.609 10.227 31.457 25.502l113.79 621.507c0.388 2.071 0.517 4.272 0.517 6.343-0.13 4.402-1.036 9.062-3.237 13.333zM779.969 169.107l-240.396 75.472L866.314 640.19l-86.346-471.082z"  horiz-adv-x="1024" />

    
    <glyph glyph-name="wode_1" unicode="&#58882;" d="M907.264-70.65599999999995H114.688c-16.384 0-32.768 8.192-43.008 20.48-10.24 14.336-14.336 30.72-10.24 47.104 40.96 208.896 210.944 364.544 415.744 380.928 68.608 0 142.848-8.704 217.088-38.912 21.504-8.704 28.672-14.336 40.96-20.48 118.784-67.584 200.704-184.32 227.328-321.536 4.096-16.384 0-32.768-12.288-47.104-10.24-12.288-26.624-20.48-43.008-20.48zM115.712-37.375999999999976c-6.656 0-12.8 2.56-16.384 7.168-0.512 0.512-0.512 1.024-1.024 1.536-5.12 5.12-5.632 13.824-4.608 18.944 37.888 194.56 197.12 340.48 387.584 354.304h15.36c91.648 0 179.712-28.672 222.72-55.808 112.64-67.584 187.904-173.568 211.456-298.496 1.024-7.168-0.512-13.824-5.632-20.48-3.584-4.608-9.728-7.168-16.384-7.168H115.712zM496.64 332.288c89.088 0 174.592-27.648 216.064-53.76h0.512c109.568-65.024 182.272-167.936 204.8-289.792 0.512-2.56 0.512-6.144-3.584-10.752-0.512-1.024-3.072-2.048-6.144-2.048H115.712c-3.072 0-5.632 1.024-6.144 2.048-0.512 1.024-1.536 2.048-2.56 2.56-1.024 1.024-2.048 4.096-1.024 7.68 36.864 188.928 190.976 330.24 375.808 344.064 4.608-0.512 9.728 0 14.848 0m0 25.6c-5.12 0-10.752 0-15.872-0.512-196.608-14.336-360.448-163.84-399.36-364.544-2.048-10.24 0-22.528 8.192-30.72 6.144-8.192 16.384-12.288 26.624-12.288h792.576c10.24 0 20.48 4.096 26.624 12.288 6.144 8.192 10.24 18.432 8.192 30.72-24.576 131.072-102.4 238.592-217.088 307.2-43.52 27.136-132.608 57.856-229.888 57.856zM512 359.424c-129.024 0-235.52 106.496-235.52 235.52s106.496 235.52 235.52 235.52 235.52-106.496 235.52-235.52-106.496-235.52-235.52-235.52zM512 392.704c-111.616 0-202.24 90.624-202.24 202.24S400.384 797.184 512 797.184s202.24-90.624 202.24-202.24-90.624-202.24-202.24-202.24zM512 784.384c104.448 0 189.44-84.992 189.44-189.44s-84.992-189.44-189.44-189.44-189.44 84.992-189.44 189.44 84.992 189.44 189.44 189.44m0 25.6c-118.784 0-215.04-96.256-215.04-215.04s96.256-215.04 215.04-215.04 215.04 96.256 215.04 215.04-96.256 215.04-215.04 215.04z"  horiz-adv-x="1024" />

    
    <glyph glyph-name="wode4" unicode="&#59347;" d="M652.8 307.2c-6.4-6.4-19.2-19.2-32-25.6-6.4-6.4-19.2-12.8-25.6-19.2-44.8-19.2-102.4-19.2-147.2 0-19.2 6.4-25.6 12.8-38.4 19.2-12.8 6.4-19.2 19.2-32 25.6-6.4 6.4-19.2 6.4-25.6 0s-6.4-19.2 0-25.6c12.8-12.8 25.6-19.2 38.4-32l38.4-19.2c25.6-12.8 57.6-19.2 89.6-19.2s64 6.4 89.6 19.2l38.4 19.2c12.8 6.4 25.6 19.2 38.4 32 6.4 6.4 6.4 19.2 0 25.6s-25.6 6.4-32 0zM928 480C928 710.4 742.4 896 512 896S96 710.4 96 480c0-192 134.4-358.4 313.6-403.2-51.2-32-96-89.6-121.6-172.8 0-12.8 0-19.2 12.8-25.6 12.8 0 19.2 0 25.6 12.8 38.4 115.2 96 172.8 192 172.8 89.6 0 147.2-51.2 192-172.8 0-6.4 12.8-12.8 19.2-12.8h6.4c12.8 6.4 12.8 12.8 12.8 25.6-25.6 64-57.6 134.4-128 172.8 179.2 44.8 307.2 204.8 307.2 403.2z m-416-384c-211.2 0-377.6 172.8-377.6 377.6S300.8 857.6 512 857.6s377.6-166.4 377.6-377.6-166.4-384-377.6-384z"  horiz-adv-x="1024" />

    
    <glyph glyph-name="jiantou12" unicode="&#58886;" d="M671.589 384.289l-39.518 39.51799999-230.692 230.69200001-0.021-0.021a28.115 28.115 0 0 1-0.809 0.851c-10.935 10.935-28.663 10.935-39.598 0-10.935-10.935-10.935-28.663 0-39.598 0.278-0.278 0.564-0.545 0.85099999-0.809l-0.02099999-0.021L592.472 384.21l-231.94-231.94c-10.935-10.935-10.935-28.663 0-39.598s28.663-10.935 39.59799999 0L671.668 384.21l-0.079 0.079z"  horiz-adv-x="1024" />

    
    <glyph glyph-name="wupinku2" unicode="&#58888;" d="M571.328 694.848c-28.416 12.16-90.24 12.16-118.656 0l-128-54.848 128-54.848c28.416-12.16 90.24-12.16 118.656 0l128 54.848-128 54.848z m50.432 117.632l292.736-125.44c60.672-25.984 60.672-68.096 0-94.08l-292.736-125.44c-60.608-26.048-158.912-26.048-219.52 0L109.44 592.96c-60.672 25.984-60.672 68.096 0 94.08l292.736 125.44c60.608 26.048 158.912 26.048 219.52 0zM103.68 324.8a64 64 0 0 0 48.64 118.4l311.04-127.808a128 128 0 0 1 97.28 0l311.04 127.808a64 64 0 0 0 48.64-118.4l-311.04-127.808a256 256 0 0 0-194.56 0L103.68 324.8z m0-256a64 64 0 0 0 48.64 118.4l311.04-127.808a128 128 0 0 1 97.28 0l311.04 127.808a64 64 0 0 0 48.64-118.4l-311.04-127.808a256 256 0 0 0-194.56 0l-311.04 127.808z"  horiz-adv-x="1024" />

    
    <glyph glyph-name="wode_zhuye" unicode="&#58883;" d="M525.65267041 361.22242823c-62.65023574 0-121.88145323 24.7193833-166.78138359 69.60740185s-69.60740185 104.10732246-69.60740186 166.78138359 24.7193833 121.88145323 69.60740186 166.78138448 104.10732246 69.60740185 166.78138359 69.60740185 121.88145323-24.7193833 166.78138447-69.60740185 69.60740185-104.10732246 69.60740186-166.78138448-24.7193833-121.88145323-69.60740186-166.78138359-104.13114873-69.60740185-166.78138447-69.60740186z m0 448.91592099c-117.19966114 0-212.53904825-95.30364815-212.53904736-212.53904825s95.30364815-212.55096094 212.53904736-212.55096093 212.55096094 95.30364815 212.55096182 212.55096093S642.85233154 810.15026191 525.65267041 810.15026191zM945.81071563-66H78.16630449l-0.14295585 11.77000049v5.27743915a426.26939151 426.26939151 0 0 0 34.41652998 168.22285226 440.6364167 440.6364167 0 0 0 231.37343174 231.38534443 426.25747881 426.25747881 0 0 0 168.1751997 34.3927037 11.91295635 11.91295635 0 0 0 0-23.82591181c-223.96357266 0-406.48197128-180.33832793-410.11542334-403.3965164h820.23084667c-2.38259092 139.15523935-78.12516533 270.42410127-198.87488701 343.95086601a11.91295635 11.91295635 0 1 0 12.38947383 20.34732832 442.1612751 442.1612751 0 0 0 152.25949073-155.53555313 430.5104042 430.5104042 0 0 0 58.11139951-215.55302607v-5.27743916z"  horiz-adv-x="1024" />

    
    <glyph glyph-name="bofangsanjiaoxing-copy-copy" unicode="&#58895;" d="M449.36533334 718.5066666600001L92.37333334 127.72266665999996C81.62133334 110.05866665999997 81.62133334 88.87466666 92.30933333 71.01866666000001 103.06133334 53.290666660000056 122.26133333 42.66666666000003 143.70133334 42.66666666000003l714.176 0c21.44 0 40.704 10.624 51.392 28.352C914.64533334 79.91466665999997 917.33333334 89.64266666000003 917.33333334 99.37066666999999c0 9.728-2.688 19.52-8.064 28.35199999l-356.992 590.72c-10.752 17.728-30.016 28.288-51.456 28.288C479.31733334 746.79466666 460.05333334 736.23466666 449.36533334 718.5066666600001zM849.04533334 104.23466666000002L151.12533334 101.80266666l349.696 578.624L849.04533334 104.23466666000002z"  horiz-adv-x="1024" />

    
    <glyph glyph-name="tianjia" unicode="&#59026;" d="M1024 396.61v-25.22H524.61V-128h-25.22V371.39H0v25.22h499.39V896h25.22v-499.39z"  horiz-adv-x="1024" />

    
    <glyph glyph-name="fabu15" unicode="&#58922;" d="M766.1 15.1L539.5 126.2c-16.9 8.3-24 28.7-15.7 45.7 4 8.1 11 14.3 19.5 17.3 8.6 2.9 17.9 2.4 26.1-1.6l185.8-91.2 80.2 549.1-361.2-433.4v-201.4c0-18.8-15.3-34.1-34.1-34.1S406-8.1 406 10.7V223.3c0 1.8 0.1 3.5 0.4 5.3 0.8 6.6 3.5 12.9 7.7 18L754.4 655 208.8 371.9l128.6-66.7c16.9-8.9 23.6-29.5 15.3-46.6-3.8-7.9-10.7-13.9-19-16.8-8.3-2.9-17.4-2.3-25.3 1.5l-186 96.8c-7.1 3.7-12.7 9.7-15.9 17-4.2 7.9-5.1 17.2-2.5 25.7 2.6 8.6 8.5 15.8 16.5 20l749.6 388.9c5 2.6 10.6 3.9 16.2 3.9 16.7 0.3 31.1-11.5 34.1-27.9 1.1-5.5 0.9-11.1-0.6-16.5L816.1 41.1c-2.2-15.4-14.3-26.8-28.9-29-7.2-1.3-14.6-0.3-21.1 3z m0 0"  horiz-adv-x="1024" />

    
    <glyph glyph-name="wupinguanli1" unicode="&#58911;" d="M519.584-24.128l355.2 198.208V567.616l-355.2-199.008v-392.736z m-48 2.016V370.08L120 567.04v-392.96l351.584-196.16zM849.088 608.256L497.408 804.48 145.184 608l351.68-197.056 352.224 197.344z m73.696 13.824v-476.16L497.408-91.52 72 145.92V622.08L497.408 859.52 922.784 622.08z"  horiz-adv-x="1024" />

    
    <glyph glyph-name="wupin-copy" unicode="&#59292;" d="M99.697653 131.29248800000005V638.051113L513.136893 828.290899l410.893255-190.222389v-506.786255L512.649799-58.945250999999985 99.697653 131.29248800000005z m434.248172 325.453326v-457.029014l345.92252 155.063635V595.1131849999999L533.945825 456.745814zM143.860479 157.919938L489.781976 1.8626729999999725l0.001023 454.883141L143.860479 595.1131849999999v-437.193247z m31.009247 470.947002l338.870918-133.715421 331.206354 133.401266L513.198292 779.0033559999999 174.869726 628.86694z"  horiz-adv-x="1024" />

    
    <glyph glyph-name="gongnengjianyi-copy" unicode="&#59293;" d="M509.945713 557.016519c-95.924723 0-173.98252-78.033237-173.98252-173.934424 0-95.913467 78.056774-173.946704 173.98252-173.946704 27.333532 0 53.132104 6.514367 76.17082 17.796318l-0.024559 0.057305c6.245238 3.169179 10.526751 9.629311 10.526751 17.10354 0 10.598382-8.590656 19.237133-19.213597 19.237133-2.492774 0-4.866844-0.490164-7.051603-1.356904l-0.101307 0.225127c-18.196431-9.087982-38.614459-14.351869-60.306504-14.351869-74.587765 0-135.248334 60.662615-135.248334 135.238101 0 74.564229 60.660568 135.201262 135.248334 135.201262 74.588789 0 135.296429-60.637032 135.296429-135.201262 0-13.313214-2.029216-26.164916-5.616928-38.319747l0.344854-0.134053c-0.36532-1.479701-0.580215-3.019777-0.580215-4.611018 0-10.597359 8.589632-19.190061 19.212574-19.190061 7.319709 0 13.675464 4.081968 16.918321 10.090822l0.334621-0.12996c0.330528 1.049912 0.652869 2.104941 0.963954 3.163039 0.152473 0.454348 0.279363 0.919952 0.398066 1.38965 4.343935 15.180747 6.710842 31.182186 6.710842 47.740304C683.928233 478.983281 605.896018 557.016519 509.945713 557.016519zM921.639193 479.113241l-66.230424 0c-3.422959 12.533454-7.649214 25.137517-12.888542 38.309514l-3.870144 9.299807c-5.098111 11.824303-10.952446 23.461341-17.326621 34.673707l46.807049 46.806026c4.814656 4.816702 7.481392 11.212366 7.481392 18.010189 0 6.797823-2.665713 13.19451-7.481392 18.010189l-96.986915 96.964402c-9.655917 9.653871-26.437116 9.653871-36.043914 0l-46.806026-46.806026c-11.375072 6.467295-23.36822 12.438287-36.774555 18.24555l-8.685823 3.540639c-11.992125 4.721535-24.311709 8.851599-36.820604 12.298094L606.012675 794.6466379999999c0 14.043854-11.42419 25.468045-25.492604 25.468045L443.383738 820.114682c-14.068414 0-25.491581-11.447726-25.491581-25.468045l0-66.185398c-12.510942-3.445472-24.856108-7.553023-36.775578-12.298094l-10.763135-4.460592c-11.800767-5.098111-23.462365-10.927887-34.697243-17.324574l-46.828538 46.806026c-9.630335 9.630335-26.390044 9.630335-36.042891 0l-96.964402-96.964402c-4.815679-4.792143-7.482415-11.212366-7.482415-18.010189 0-6.797823 2.6432-13.169951 7.482415-18.010189l46.806026-46.806026c-6.467295-11.376095-12.462846-23.462365-18.410302-37.199227l-3.422959-8.28571c-4.744048-11.94403-8.827039-24.263613-12.249999-36.797068l-66.23247 0c-14.043854 0-25.469068-11.44875-25.469068-25.469068l0-137.137357c0-14.020318 11.425214-25.443485 25.469068-25.443485l66.23247 0c3.446495-12.580526 7.694239-25.209148 12.958126-38.522362l3.799536-9.110495c5.146207-11.848862 10.952446-23.462365 17.325597-34.626635l-46.782489-46.817282c-9.937326-9.91379-9.937326-26.106588 0-36.020378l96.963379-96.963379c9.630335-9.582239 26.390044-9.629311 36.019355 0l46.828538 46.830585c11.234879-6.4192 22.825868-12.226462 34.55705-17.325597l7.9296-3.304256 3.0208-1.226944c11.94403-4.720511 24.26566-8.828063 36.775578-12.226462l0-66.184375c0-14.068414 11.423167-25.492604 25.491581-25.492604L580.56612-49.9289c14.07046 0 25.492604 11.472286 25.492604 25.492604l0 66.184375c12.558014 3.445472 25.137517 7.648191 38.237883 12.840446l9.347902 3.870144c11.849886 5.146207 23.463388 10.95347 34.697243 17.373693l46.830585-46.830585c9.606799-9.582239 26.387997-9.629311 36.017308 0l97.011474 96.963379c9.914814 9.91379 9.914814 26.106588 0 36.020378l-46.829562 46.817282c6.420223 11.259438 12.370749 23.202445 18.081821 36.420491l1.509377 3.588735 2.220574 5.475711c4.744048 12.013615 8.850575 24.335245 12.272511 36.775578l66.233494 0c14.043854 0 25.468045 11.400654 25.468045 25.443485L947.157379 453.644173C947.109284 467.664491 935.685094 479.113241 921.639193 479.113241zM906.604778 331.59034999999994l-83.060741 0-4.626367-19.685341c-3.471055-14.635325-8.04728-29.05678-13.972223-43.99705l-1.415232-3.540639-2.031263-4.792143c-5.948479-13.737886-12.911054-27.096125-20.72502-39.701211l-10.619872-17.206894 58.70196-58.71424-75.698053-75.67247-58.678424 58.678424-17.231453-10.574846c-12.935614-7.977695-26.15366-14.82259-41.590234-21.574365l-7.741311-3.114944c-13.973246-5.522784-28.371164-10.055007-42.792619-13.501502l-19.663852-4.672416 0-82.895989L458.419176-9.375275999999985l0 82.895989-19.660782 4.672416c-14.918781 3.587712-29.315676 8.167007-45.319162 14.494109l-7.129374 2.972705c-13.595646 5.901407-26.907836 12.887518-39.676651 20.723997l-17.207917 10.574846-58.678424-58.678424-75.697029 75.67247 58.678424 58.71424-10.598382 17.206894c-7.907087 12.769838-14.870686 26.223245-21.314445 41.069371l-3.351328 8.28571c-5.499248 13.878079-10.007935 28.230971-13.430894 42.723034l-4.695952 19.638269-82.966597 0L117.370663 438.609759l82.966597 0 4.695952 19.637246c3.517103 14.82259 8.167007 29.433356 14.186094 44.587498l3.233648 7.765871c5.877871 13.595646 12.841469 26.954909 20.700461 39.724747l10.620895 17.206894-58.678424 58.655911 75.697029 75.67247 58.654888-58.654888 17.231453 10.598382c12.746302 7.860015 26.15366 14.800078 40.998763 21.219277l8.451486 3.470031c13.594623 5.405103 27.945469 9.936303 42.627866 13.453407l19.684318 4.626367L458.441689 779.564128l107.066481 0 0-82.991156 19.683295-4.626367c14.730493-3.493567 28.940123-8.001231 44.612057-14.186094l7.743358-3.257184c13.760398-5.947456 27.143197-12.911054 39.747259-20.700461l17.206894-10.598382 58.654888 58.654888 75.720565-75.67247-58.678424-58.655911 10.5728-17.183358c7.883551-12.81691 14.869662-26.293853 21.363564-41.259706l3.372817-8.167007c5.477758-13.902638 10.009981-28.253484 13.455453-42.627866l4.626367-19.684318 83.013669 0L906.602731 331.59034999999994z"  horiz-adv-x="1024" />

    
    <glyph glyph-name="wode5" unicode="&#58912;" d="M875.27568359 47.50722656000005c-14.88955078 145.434375-115.32832031 265.528125-250.16923828 309.14648438 66.64394531 39.08144531 111.40136719 111.45673828 111.40136719 194.29541015 0 124.31601562-100.77802734 225.09404297-225.09404297 225.09404297S286.32060547 675.26601562 286.32060547 550.95c0-83.27021484 45.21972656-155.97333984 112.43935547-194.90888672-133.8890625-44.12548828-233.45683594-163.77978516-248.27695313-308.53388672a24.72539063 24.72539063 0 0 1-0.4508789-4.68720703c0-13.59140625 11.01796875-24.609375 24.609375-24.609375s24.609375 11.01796875 24.609375 24.609375h0.22851562c3.18867188 30.95507812 10.89492187 61.03652344 23.05019531 89.77587891 15.86777344 37.51523437 38.59365234 71.21777344 67.54746094 100.17070312 28.95380859 28.95292969 62.65546875 51.6796875 100.17070313 67.54746094 38.81425781 16.41708984 80.07451172 24.74121094 122.63291015 24.74121094s83.81865234-8.32412109 122.63291016-24.74121094c37.51523437-15.86777344 71.21777344-38.59365234 100.17070312-67.54746094 28.95292969-28.95380859 51.6796875-62.65546875 67.54746094-100.17070312 12.15527344-28.73847656 19.86152344-58.82080078 23.05019531-89.77587891h0.22851563c0-13.59140625 11.01796875-24.609375 24.609375-24.609375s24.609375 11.01796875 24.609375 24.609375a24.94335938 24.94335938 0 0 1-0.45351563 4.68720703z m-539.73632812 503.44277344c0 46.97753906 18.29443359 91.14433594 51.51269531 124.36259766 33.21826172 33.21826172 77.38417969 51.51269531 124.36259766 51.51269531 46.97753906 0 91.14433594-18.29443359 124.36259765-51.51269531 33.21826172-33.21826172 51.51269531-77.38417969 51.51269532-124.36259766 0-46.97753906-18.29443359-91.14433594-51.51269532-124.36259766-33.21826172-33.21826172-77.38417969-51.51269531-124.36259765-51.51269531-46.97753906 0-91.14433594 18.29443359-124.36259766 51.51269531-33.21826172 33.21826172-51.51269531 77.38505859-51.51269531 124.36259766z"  horiz-adv-x="1024" />

    
    </font>
</defs>
</svg>
